<svg width="48" height="48" viewBox="0 0 48 48" fill="none" xmlns="http://www.w3.org/2000/svg">
<path fill-rule="evenodd" clip-rule="evenodd" d="M37.091 25.637H45.8182C46.7215 25.637 47.4546 24.9039 47.4546 24.0006C47.4546 23.0973 46.7215 22.3643 45.8182 22.3643H37.091C36.1877 22.3643 35.4546 23.0973 35.4546 24.0006C35.4546 24.9039 36.1877 25.637 37.091 25.637Z" fill="url(#paint0_linear_209_685)"/>
<path fill-rule="evenodd" clip-rule="evenodd" d="M25.6363 10.9095V2.18226C25.6363 1.27899 24.9032 0.545898 23.9999 0.545898C23.0966 0.545898 22.3635 1.27899 22.3635 2.18226V10.9095C22.3635 11.8128 23.0966 12.5459 23.9999 12.5459C24.9032 12.5459 25.6363 11.8128 25.6363 10.9095Z" fill="url(#paint1_linear_209_685)"/>
<path fill-rule="evenodd" clip-rule="evenodd" d="M22.3635 37.0914V45.8187C22.3635 46.722 23.0966 47.4551 23.9999 47.4551C24.9032 47.4551 25.6363 46.722 25.6363 45.8187V37.0914C25.6363 36.1882 24.9032 35.4551 23.9999 35.4551C23.0966 35.4551 22.3635 36.1882 22.3635 37.0914Z" fill="url(#paint2_linear_209_685)"/>
<path fill-rule="evenodd" clip-rule="evenodd" d="M10.909 22.3643H2.18177C1.2785 22.3643 0.54541 23.0973 0.54541 24.0006C0.54541 24.9039 1.2785 25.637 2.18177 25.637H10.909C11.8123 25.637 12.5454 24.9039 12.5454 24.0006C12.5454 23.0973 11.8123 22.3643 10.909 22.3643Z" fill="url(#paint3_linear_209_685)"/>
<path fill-rule="evenodd" clip-rule="evenodd" d="M37.091 19.0911H42.5455C43.4488 19.0911 44.1819 18.358 44.1819 17.4547C44.1819 16.5515 43.4488 15.8184 42.5455 15.8184H37.091C36.1877 15.8184 35.4546 16.5515 35.4546 17.4547C35.4546 18.358 36.1877 19.0911 37.091 19.0911Z" fill="url(#paint4_linear_209_685)"/>
<path fill-rule="evenodd" clip-rule="evenodd" d="M19.0908 10.9093V5.45472C19.0908 4.55145 18.3578 3.81836 17.4545 3.81836C16.5512 3.81836 15.8181 4.55145 15.8181 5.45472V10.9093C15.8181 11.8125 16.5512 12.5456 17.4545 12.5456C18.3578 12.5456 19.0908 11.8125 19.0908 10.9093Z" fill="url(#paint5_linear_209_685)"/>
<path fill-rule="evenodd" clip-rule="evenodd" d="M15.8181 37.0914V42.546C15.8181 43.4493 16.5512 44.1824 17.4545 44.1824C18.3578 44.1824 19.0908 43.4493 19.0908 42.546V37.0914C19.0908 36.1882 18.3578 35.4551 17.4545 35.4551C16.5512 35.4551 15.8181 36.1882 15.8181 37.0914Z" fill="url(#paint6_linear_209_685)"/>
<path fill-rule="evenodd" clip-rule="evenodd" d="M10.909 15.8184H5.45448C4.55121 15.8184 3.81812 16.5515 3.81812 17.4547C3.81812 18.358 4.55121 19.0911 5.45448 19.0911H10.909C11.8123 19.0911 12.5454 18.358 12.5454 17.4547C12.5454 16.5515 11.8123 15.8184 10.909 15.8184Z" fill="url(#paint7_linear_209_685)"/>
<path fill-rule="evenodd" clip-rule="evenodd" d="M37.091 32.1819H42.5455C43.4488 32.1819 44.1819 31.4488 44.1819 30.5455C44.1819 29.6423 43.4488 28.9092 42.5455 28.9092H37.091C36.1877 28.9092 35.4546 29.6423 35.4546 30.5455C35.4546 31.4488 36.1877 32.1819 37.091 32.1819Z" fill="url(#paint8_linear_209_685)"/>
<path fill-rule="evenodd" clip-rule="evenodd" d="M32.1817 10.9093V5.45472C32.1817 4.55145 31.4486 3.81836 30.5453 3.81836C29.642 3.81836 28.9089 4.55145 28.9089 5.45472V10.9093C28.9089 11.8125 29.642 12.5456 30.5453 12.5456C31.4486 12.5456 32.1817 11.8125 32.1817 10.9093Z" fill="url(#paint9_linear_209_685)"/>
<path fill-rule="evenodd" clip-rule="evenodd" d="M28.9089 37.0914V42.546C28.9089 43.4493 29.642 44.1824 30.5453 44.1824C31.4486 44.1824 32.1817 43.4493 32.1817 42.546V37.0914C32.1817 36.1882 31.4486 35.4551 30.5453 35.4551C29.642 35.4551 28.9089 36.1882 28.9089 37.0914Z" fill="url(#paint10_linear_209_685)"/>
<path fill-rule="evenodd" clip-rule="evenodd" d="M10.909 28.9092H5.45448C4.55121 28.9092 3.81812 29.6423 3.81812 30.5455C3.81812 31.4488 4.55121 32.1819 5.45448 32.1819H10.909C11.8123 32.1819 12.5454 31.4488 12.5454 30.5455C12.5454 29.6423 11.8123 28.9092 10.909 28.9092Z" fill="url(#paint11_linear_209_685)"/>
<path fill-rule="evenodd" clip-rule="evenodd" d="M38.7272 15.2734C38.7272 11.9593 36.0414 9.27344 32.7272 9.27344H15.2727C11.9585 9.27344 9.27271 11.9593 9.27271 15.2734V32.728C9.27271 36.0422 11.9585 38.728 15.2727 38.728H32.7272C36.0414 38.728 38.7272 36.0422 38.7272 32.728V15.2734ZM28.3636 19.6371V28.3643C28.3636 29.2676 29.0967 30.0007 30 30.0007C30.9032 30.0007 31.6363 29.2676 31.6363 28.3643V19.6371C31.6363 18.7338 30.9032 18.0007 30 18.0007C29.0967 18.0007 28.3636 18.7338 28.3636 19.6371ZM26.1818 28.3643V21.8189C26.1818 19.7113 24.4734 18.0007 22.3636 18.0007H20.1818C18.072 18.0007 16.3636 19.7113 16.3636 21.8189V28.3643C16.3636 29.2676 17.0967 30.0007 18 30.0007C18.9032 30.0007 19.6363 29.2676 19.6363 28.3643V26.728H22.9091V28.3643C22.9091 29.2676 23.6422 30.0007 24.5454 30.0007C25.4487 30.0007 26.1818 29.2676 26.1818 28.3643ZM19.6363 23.4553H22.9091V21.8189C22.9091 21.5178 22.6647 21.2734 22.3636 21.2734H20.1818C19.8807 21.2734 19.6363 21.5178 19.6363 21.8189V23.4553Z" fill="url(#paint12_linear_209_685)"/>
<defs>
<linearGradient id="paint0_linear_209_685" x1="35.4546" y1="22.3643" x2="37.1161" y2="28.4566" gradientUnits="userSpaceOnUse">
<stop stop-color="#00F4E6"/>
<stop offset="1" stop-color="#2C9AFF"/>
</linearGradient>
<linearGradient id="paint1_linear_209_685" x1="22.3635" y1="0.545898" x2="28.4558" y2="2.20744" gradientUnits="userSpaceOnUse">
<stop stop-color="#00F4E6"/>
<stop offset="1" stop-color="#2C9AFF"/>
</linearGradient>
<linearGradient id="paint2_linear_209_685" x1="22.3635" y1="35.4551" x2="28.4558" y2="37.1166" gradientUnits="userSpaceOnUse">
<stop stop-color="#00F4E6"/>
<stop offset="1" stop-color="#2C9AFF"/>
</linearGradient>
<linearGradient id="paint3_linear_209_685" x1="0.54541" y1="22.3643" x2="2.20695" y2="28.4566" gradientUnits="userSpaceOnUse">
<stop stop-color="#00F4E6"/>
<stop offset="1" stop-color="#2C9AFF"/>
</linearGradient>
<linearGradient id="paint4_linear_209_685" x1="35.4546" y1="15.8184" x2="37.6065" y2="21.5568" gradientUnits="userSpaceOnUse">
<stop stop-color="#00F4E6"/>
<stop offset="1" stop-color="#2C9AFF"/>
</linearGradient>
<linearGradient id="paint5_linear_209_685" x1="15.8181" y1="3.81836" x2="21.5566" y2="5.97029" gradientUnits="userSpaceOnUse">
<stop stop-color="#00F4E6"/>
<stop offset="1" stop-color="#2C9AFF"/>
</linearGradient>
<linearGradient id="paint6_linear_209_685" x1="15.8181" y1="35.4551" x2="21.5566" y2="37.607" gradientUnits="userSpaceOnUse">
<stop stop-color="#00F4E6"/>
<stop offset="1" stop-color="#2C9AFF"/>
</linearGradient>
<linearGradient id="paint7_linear_209_685" x1="3.81812" y1="15.8184" x2="5.97005" y2="21.5568" gradientUnits="userSpaceOnUse">
<stop stop-color="#00F4E6"/>
<stop offset="1" stop-color="#2C9AFF"/>
</linearGradient>
<linearGradient id="paint8_linear_209_685" x1="35.4546" y1="28.9092" x2="37.6065" y2="34.6477" gradientUnits="userSpaceOnUse">
<stop stop-color="#00F4E6"/>
<stop offset="1" stop-color="#2C9AFF"/>
</linearGradient>
<linearGradient id="paint9_linear_209_685" x1="28.9089" y1="3.81836" x2="34.6474" y2="5.97029" gradientUnits="userSpaceOnUse">
<stop stop-color="#00F4E6"/>
<stop offset="1" stop-color="#2C9AFF"/>
</linearGradient>
<linearGradient id="paint10_linear_209_685" x1="28.9089" y1="35.4551" x2="34.6474" y2="37.607" gradientUnits="userSpaceOnUse">
<stop stop-color="#00F4E6"/>
<stop offset="1" stop-color="#2C9AFF"/>
</linearGradient>
<linearGradient id="paint11_linear_209_685" x1="3.81812" y1="28.9092" x2="5.97005" y2="34.6477" gradientUnits="userSpaceOnUse">
<stop stop-color="#00F4E6"/>
<stop offset="1" stop-color="#2C9AFF"/>
</linearGradient>
<linearGradient id="paint12_linear_209_685" x1="9.27271" y1="9.27344" x2="38.7272" y2="38.728" gradientUnits="userSpaceOnUse">
<stop stop-color="#00F4E6"/>
<stop offset="1" stop-color="#2C9AFF"/>
</linearGradient>
</defs>
</svg>
