<svg width="48" height="48" viewBox="0 0 48 48" fill="none" xmlns="http://www.w3.org/2000/svg">
<path d="M20.5 18C22.9853 18 25 15.9853 25 13.5C25 11.0147 22.9853 9 20.5 9C18.0147 9 16 11.0147 16 13.5C16 15.9853 18.0147 18 20.5 18Z" fill="url(#paint0_linear_209_406)"/>
<path d="M28 26V24C28 22.4087 27.3679 20.8826 26.2426 19.7574C25.1174 18.6321 23.5913 18 22 18H19C17.4087 18 15.8826 18.6321 14.7574 19.7574C13.6321 20.8826 13 22.4087 13 24V26H28Z" fill="url(#paint1_linear_209_406)"/>
<path d="M5 26V9C5.00158 8.47005 5.2128 7.96227 5.58753 7.58753C5.96227 7.2128 6.47005 7.00158 7 7H34C34.5299 7.00158 35.0377 7.2128 35.4125 7.58753C35.7872 7.96227 35.9984 8.47005 36 9V11C37.0254 11.0017 38.0419 11.1897 39 11.555V9C39 7.67392 38.4732 6.40215 37.5355 5.46447C36.5979 4.52678 35.3261 4 34 4H7C5.67392 4 4.40215 4.52678 3.46447 5.46447C2.52678 6.40215 2 7.67392 2 9V29C2 30.3261 2.52678 31.5979 3.46447 32.5355C4.40215 33.4732 5.67392 34 7 34H15V36H9.67C9.1879 35.9995 8.71043 36.094 8.26493 36.2783C7.81943 36.4625 7.41464 36.7328 7.07374 37.0737C6.73285 37.4146 6.46254 37.8194 6.27829 38.2649C6.09404 38.7104 5.99947 39.1879 6 39.67C6.00158 40.0223 6.14221 40.3596 6.39129 40.6087C6.64037 40.8578 6.97775 40.9984 7.33 41H24V35C23.9968 32.4423 24.8923 29.9647 26.53 28H7C6.47005 27.9984 5.96227 27.7872 5.58753 27.4125C5.2128 27.0377 5.00158 26.5299 5 26ZM20.5 29.5C20.7967 29.5 21.0867 29.588 21.3334 29.7528C21.58 29.9176 21.7723 30.1519 21.8858 30.426C21.9993 30.7001 22.0291 31.0017 21.9712 31.2926C21.9133 31.5836 21.7704 31.8509 21.5607 32.0607C21.3509 32.2704 21.0836 32.4133 20.7926 32.4712C20.5017 32.5291 20.2001 32.4993 19.926 32.3858C19.6519 32.2723 19.4176 32.08 19.2528 31.8334C19.088 31.5867 19 31.2967 19 31C19 30.6022 19.158 30.2206 19.4393 29.9393C19.7206 29.658 20.1022 29.5 20.5 29.5Z" fill="url(#paint2_linear_209_406)"/>
<path d="M36 26C39.5899 26 42.5 23.0899 42.5 19.5C42.5 15.9101 39.5899 13 36 13C32.4101 13 29.5 15.9101 29.5 19.5C29.5 23.0899 32.4101 26 36 26Z" fill="url(#paint3_linear_209_406)"/>
<path d="M43 44H29C28.2044 44 27.4413 43.6839 26.8787 43.1213C26.3161 42.5587 26 41.7956 26 41V35C26.0026 32.6139 26.9517 30.3262 28.639 28.639C30.3262 26.9517 32.6139 26.0026 35 26H37C39.3861 26.0026 41.6738 26.9517 43.361 28.639C45.0483 30.3262 45.9974 32.6139 46 35V41C46 41.7956 45.6839 42.5587 45.1213 43.1213C44.5587 43.6839 43.7956 44 43 44Z" fill="url(#paint4_linear_209_406)"/>
<defs>
<linearGradient id="paint0_linear_209_406" x1="16" y1="9" x2="25" y2="18" gradientUnits="userSpaceOnUse">
<stop stop-color="#00F4E6"/>
<stop offset="1" stop-color="#2C9AFF"/>
</linearGradient>
<linearGradient id="paint1_linear_209_406" x1="13" y1="18" x2="19.6436" y2="30.4567" gradientUnits="userSpaceOnUse">
<stop stop-color="#00F4E6"/>
<stop offset="1" stop-color="#2C9AFF"/>
</linearGradient>
<linearGradient id="paint2_linear_209_406" x1="2" y1="4" x2="39" y2="41" gradientUnits="userSpaceOnUse">
<stop stop-color="#00F4E6"/>
<stop offset="1" stop-color="#2C9AFF"/>
</linearGradient>
<linearGradient id="paint3_linear_209_406" x1="29.5" y1="13" x2="42.5" y2="26" gradientUnits="userSpaceOnUse">
<stop stop-color="#00F4E6"/>
<stop offset="1" stop-color="#2C9AFF"/>
</linearGradient>
<linearGradient id="paint4_linear_209_406" x1="26" y1="26" x2="43.9006" y2="45.8895" gradientUnits="userSpaceOnUse">
<stop stop-color="#00F4E6"/>
<stop offset="1" stop-color="#2C9AFF"/>
</linearGradient>
</defs>
</svg>
