<svg width="40" height="44" viewBox="0 0 40 44" fill="none" xmlns="http://www.w3.org/2000/svg">
<path fill-rule="evenodd" clip-rule="evenodd" d="M28.7581 14.9801L24.3961 28.0721C24.1341 28.8561 24.5581 29.7061 25.3441 29.9681C26.1301 30.2301 26.9801 29.8061 27.2421 29.0201L31.6041 15.9281C31.8661 15.1441 31.4421 14.2941 30.6561 14.0321C29.8701 13.7701 29.0201 14.1941 28.7581 14.9801Z" fill="url(#paint0_linear_209_414)"/>
<path fill-rule="evenodd" clip-rule="evenodd" d="M32.576 18.6982L35.878 22.0002L32.576 25.3022C31.99 25.8882 31.99 26.8382 32.576 27.4242C33.162 28.0102 34.112 28.0102 34.698 27.4242L39.06 23.0602C39.646 22.4742 39.646 21.5262 39.06 20.9402L34.698 16.5762C34.112 15.9902 33.162 15.9902 32.576 16.5762C31.99 17.1622 31.99 18.1122 32.576 18.6982Z" fill="url(#paint1_linear_209_414)"/>
<path fill-rule="evenodd" clip-rule="evenodd" d="M21.302 16.5762L16.94 20.9402C16.354 21.5262 16.354 22.4742 16.94 23.0602L21.302 27.4242C21.888 28.0102 22.838 28.0102 23.424 27.4242C24.01 26.8382 24.01 25.8882 23.424 25.3022L20.122 22.0002L23.424 18.6982C24.01 18.1122 24.01 17.1622 23.424 16.5762C22.838 15.9902 21.888 15.9902 21.302 16.5762Z" fill="url(#paint2_linear_209_414)"/>
<path fill-rule="evenodd" clip-rule="evenodd" d="M29.5 28.568L29.138 29.652C28.528 31.484 26.544 32.476 24.712 31.866C23.7 31.528 22.944 30.774 22.574 29.856C21.61 29.914 20.626 29.574 19.888 28.838L15.526 24.474C14.158 23.108 14.158 20.892 15.526 19.526L19.888 15.162C21.254 13.796 23.472 13.796 24.838 15.162C25.454 15.778 25.792 16.566 25.854 17.372L26.862 14.348C27.274 13.112 28.308 12.26 29.5 12.022V6C29.5 4.542 28.92 3.142 27.89 2.11C26.858 1.08 25.458 0.5 24 0.5C19.112 0.5 10.888 0.5 6 0.5C4.542 0.5 3.142 1.08 2.11 2.11C1.08 3.142 0.5 4.542 0.5 6V38C0.5 39.458 1.08 40.858 2.11 41.89C3.142 42.92 4.542 43.5 6 43.5H24C25.458 43.5 26.858 42.92 27.89 41.89C28.92 40.858 29.5 39.458 29.5 38V28.568ZM11 38.5H19C19.828 38.5 20.5 37.828 20.5 37C20.5 36.172 19.828 35.5 19 35.5H11C10.172 35.5 9.5 36.172 9.5 37C9.5 37.828 10.172 38.5 11 38.5ZM23 3.5H7L8.246 6.614C8.702 7.754 9.804 8.5 11.032 8.5H18.968C20.196 8.5 21.298 7.754 21.754 6.614L23 3.5Z" fill="url(#paint3_linear_209_414)"/>
<defs>
<linearGradient id="paint0_linear_209_414" x1="24.3186" y1="13.9546" x2="36.495" y2="19.5263" gradientUnits="userSpaceOnUse">
<stop stop-color="#00F4E6"/>
<stop offset="1" stop-color="#2C9AFF"/>
</linearGradient>
<linearGradient id="paint1_linear_209_414" x1="32.1365" y1="16.1367" x2="42.6987" y2="22.7684" gradientUnits="userSpaceOnUse">
<stop stop-color="#00F4E6"/>
<stop offset="1" stop-color="#2C9AFF"/>
</linearGradient>
<linearGradient id="paint2_linear_209_414" x1="16.5005" y1="16.1367" x2="27.0627" y2="22.7684" gradientUnits="userSpaceOnUse">
<stop stop-color="#00F4E6"/>
<stop offset="1" stop-color="#2C9AFF"/>
</linearGradient>
<linearGradient id="paint3_linear_209_414" x1="0.5" y1="0.5" x2="40.3669" y2="27.387" gradientUnits="userSpaceOnUse">
<stop stop-color="#00F4E6"/>
<stop offset="1" stop-color="#2C9AFF"/>
</linearGradient>
</defs>
</svg>
