<svg width="42" height="44" viewBox="0 0 42 44" fill="none" xmlns="http://www.w3.org/2000/svg">
<path d="M38.922 25.834L38.2659 25.456C37.9646 25.2752 37.7227 25.0101 37.5703 24.6934C37.4178 24.3767 37.3614 24.0224 37.408 23.674C37.4689 23.1181 37.4996 22.5593 37.5 22C37.4994 21.4428 37.4694 20.886 37.41 20.332C37.3619 19.9829 37.4175 19.6274 37.5696 19.3095C37.7218 18.9917 37.9639 18.7255 38.2659 18.544L38.922 18.166C40.0156 17.5332 40.8135 16.4922 41.1405 15.2717C41.4674 14.0512 41.2968 12.7508 40.666 11.656L39.7999 10.14C39.4864 9.59781 39.0692 9.1227 38.572 8.7418C38.0749 8.36091 37.5075 8.08169 36.9024 7.92011C36.2973 7.75853 35.6663 7.71774 35.0454 7.80008C34.4246 7.88242 33.826 8.08628 33.284 8.4L32.6199 8.784C32.3154 8.95415 31.9677 9.03138 31.6197 9.00615C31.2717 8.98091 30.9388 8.85432 30.6619 8.642C29.7102 7.95548 28.6885 7.37156 27.614 6.9C27.29 6.76652 27.012 6.54138 26.8141 6.25219C26.6162 5.963 26.507 5.62234 26.5 5.272C26.5 4.00743 25.998 2.79456 25.1044 1.89981C24.2108 1.00505 22.9985 0.50159 21.7339 0.5H20.266C19.0024 0.501588 17.7911 1.00423 16.8976 1.89768C16.0042 2.79114 15.5015 4.00247 15.5 5.266C15.4927 5.61657 15.3833 5.95739 15.185 6.2466C14.9867 6.53582 14.7083 6.76083 14.384 6.894C13.3106 7.36555 12.2903 7.94947 11.34 8.636C11.063 8.8488 10.7298 8.97584 10.3815 9.00144C10.0332 9.02703 9.68501 8.95005 9.37995 8.78L8.71795 8.4C8.17587 8.0857 7.57713 7.88138 6.956 7.79873C6.33486 7.71608 5.70353 7.75673 5.09812 7.91835C4.49272 8.07996 3.92512 8.35937 3.42782 8.74059C2.93052 9.12181 2.51327 9.59735 2.19995 10.14L1.32595 11.656C0.695131 12.7508 0.524478 14.0512 0.851449 15.2717C1.17842 16.4922 1.9763 17.5332 3.06995 18.166L3.72595 18.544C4.02732 18.7248 4.26916 18.9899 4.42163 19.3066C4.5741 19.6233 4.63053 19.9776 4.58395 20.326C4.52569 20.8821 4.49764 21.4409 4.49995 22C4.50047 22.5572 4.53052 23.114 4.58995 23.668C4.63795 24.0171 4.58243 24.3726 4.43026 24.6905C4.2781 25.0083 4.03599 25.2745 3.73395 25.456L3.07795 25.834C1.9843 26.4668 1.18642 27.5078 0.859449 28.7283C0.532478 29.9488 0.703131 31.2492 1.33395 32.344L2.20795 33.86C2.84004 34.9545 3.88097 35.753 5.1018 36.0801C6.32263 36.4072 7.62338 36.2359 8.71795 35.604L9.37795 35.222C9.68267 35.0512 10.0308 34.9736 10.3793 34.9988C10.7277 35.024 11.061 35.151 11.338 35.364C12.2897 36.0505 13.3114 36.6344 14.386 37.106C14.7099 37.2395 14.9879 37.4646 15.1858 37.7538C15.3837 38.043 15.4929 38.3837 15.5 38.734C15.5015 39.9975 16.0042 41.2089 16.8976 42.1023C17.7911 42.9958 19.0024 43.4984 20.266 43.5H21.7339C22.9975 43.4984 24.2088 42.9958 25.1023 42.1023C25.9957 41.2089 26.4984 39.9975 26.5 38.734C26.5072 38.3834 26.6167 38.0426 26.8149 37.7534C27.0132 37.4642 27.2916 37.2392 27.6159 37.106C28.6893 36.6344 29.7096 36.0505 30.66 35.364C30.9381 35.1528 31.2718 35.0272 31.6201 35.0023C31.9685 34.9774 32.3166 35.0545 32.622 35.224L33.282 35.604C33.8243 35.9181 34.4232 36.1222 35.0445 36.2046C35.6658 36.2869 36.2973 36.2459 36.9027 36.0839C37.5081 35.922 38.0757 35.6421 38.5728 35.2605C39.07 34.8789 39.487 34.403 39.7999 33.86L40.674 32.344C41.3041 31.2482 41.4735 29.9471 41.145 28.7265C40.8165 27.5058 40.017 26.4655 38.922 25.834ZM21 31.5C19.121 31.5 17.2843 30.9428 15.722 29.899C14.1598 28.8551 12.9421 27.3714 12.2231 25.6355C11.5041 23.8996 11.3159 21.9895 11.6825 20.1466C12.0491 18.3038 12.9538 16.6111 14.2824 15.2825C15.611 13.9539 17.3038 13.0491 19.1466 12.6825C20.9894 12.316 22.8995 12.5041 24.6354 13.2231C26.3713 13.9422 27.855 15.1598 28.8989 16.7221C29.9428 18.2843 30.5 20.1211 30.5 22C30.4968 24.5186 29.4949 26.9331 27.714 28.714C25.933 30.4949 23.5185 31.4968 21 31.5Z" fill="url(#paint0_linear_209_705)"/>
<path d="M21 28.5C24.5899 28.5 27.5 25.5899 27.5 22C27.5 18.4101 24.5899 15.5 21 15.5C17.4101 15.5 14.5 18.4101 14.5 22C14.5 25.5899 17.4101 28.5 21 28.5Z" fill="url(#paint1_linear_209_705)"/>
<defs>
<linearGradient id="paint0_linear_209_705" x1="0.688965" y1="0.5" x2="43.6194" y2="41.0542" gradientUnits="userSpaceOnUse">
<stop stop-color="#00F4E6"/>
<stop offset="1" stop-color="#2C9AFF"/>
</linearGradient>
<linearGradient id="paint1_linear_209_705" x1="14.5" y1="15.5" x2="27.5" y2="28.5" gradientUnits="userSpaceOnUse">
<stop stop-color="#00F4E6"/>
<stop offset="1" stop-color="#2C9AFF"/>
</linearGradient>
</defs>
</svg>
