<svg width="46" height="36" viewBox="0 0 46 36" fill="none" xmlns="http://www.w3.org/2000/svg">
<path fill-rule="evenodd" clip-rule="evenodd" d="M45.5 5.95692C45.5 2.36974 42.3264 -0.323495 38.8071 0.031435C27.0731 1.21484 18.8544 1.21636 7.19742 0.0353052C3.677 -0.32138 0.5 2.37184 0.5 5.96119V25.5282C0.5 29.0979 3.64476 31.7871 7.15018 31.4576C18.8924 30.3536 27.1188 30.3887 38.8701 31.4734C42.3705 31.7965 45.5 29.1069 45.5 25.5471V5.95692ZM15.2897 10.8475C15.9262 10.3171 16.872 10.4031 17.4023 11.0395C17.9327 11.676 17.8467 12.6218 17.2103 13.1521L14.0931 15.7498L17.2103 18.3475C17.8467 18.8778 17.9327 19.8237 17.4023 20.4601C16.872 21.0965 15.9262 21.1825 15.2897 20.6521L12.1726 18.0545C10.7332 16.8551 10.7332 14.6445 12.1726 13.4451L15.2897 10.8475ZM27.7794 11.1279C28.2609 10.4538 29.1978 10.2977 29.8719 10.7792L33.541 13.4C35.1401 14.5422 35.2275 16.8878 33.7178 18.1458L30.7103 20.6521C30.0738 21.1825 29.128 21.0965 28.5977 20.4601C28.0673 19.8237 28.1533 18.8778 28.7897 18.3475L31.7973 15.8412L28.1281 13.2204C27.454 12.7389 27.2979 11.802 27.7794 11.1279ZM27.2991 10.4998C27.7132 9.78237 27.4674 8.86497 26.75 8.45074C26.0326 8.03659 25.1151 8.28237 24.7009 8.99981L17.951 20.6912C17.5368 21.4086 17.7826 22.326 18.5 22.7402C19.2174 23.1544 20.1348 22.9086 20.549 22.1912L27.2991 10.4998Z" fill="url(#paint0_linear_209_343)"/>
<path d="M12.2948 33.0141C19.7262 31.9868 26.3033 32.0039 33.703 33.0138C34.5238 33.1258 35.0984 33.882 34.9864 34.7028C34.8744 35.5237 34.1181 36.0982 33.2973 35.9862C26.1627 35.0125 19.8603 34.9968 12.7056 35.9859C11.885 36.0993 11.1277 35.526 11.0143 34.7054C10.9008 33.8848 11.4741 33.1276 12.2948 33.0141Z" fill="url(#paint1_linear_209_343)"/>
<defs>
<linearGradient id="paint0_linear_209_343" x1="0.5" y1="0" x2="30.097" y2="42.2818" gradientUnits="userSpaceOnUse">
<stop stop-color="#00F4E6"/>
<stop offset="1" stop-color="#2C9AFF"/>
</linearGradient>
<linearGradient id="paint1_linear_209_343" x1="11" y1="32.25" x2="12.144" y2="39.5716" gradientUnits="userSpaceOnUse">
<stop stop-color="#00F4E6"/>
<stop offset="1" stop-color="#2C9AFF"/>
</linearGradient>
</defs>
</svg>
