<svg width="42" height="36" viewBox="0 0 42 36" fill="none" xmlns="http://www.w3.org/2000/svg">
<path d="M42 3C42 2.20435 41.6839 1.44129 41.1213 0.87868C40.5587 0.31607 39.7956 0 39 0H17.115L20.115 3H42Z" fill="url(#paint0_linear_519_167)"/>
<path d="M18.435 5.565L12.885 0H3C2.20435 0 1.44129 0.31607 0.87868 0.87868C0.31607 1.44129 0 2.20435 0 3V33C0 33.7957 0.31607 34.5587 0.87868 35.1213C1.44129 35.6839 2.20435 36 3 36H39C39.7957 36 40.5587 35.6839 41.1213 35.1213C41.6839 34.5587 42 33.7957 42 33V6H19.5C19.3026 6.00114 19.1069 5.9633 18.9241 5.88866C18.7414 5.81401 18.5752 5.70402 18.435 5.565ZM4.5 6C4.10218 6 3.72064 5.84196 3.43934 5.56066C3.15804 5.27936 3 4.89782 3 4.5C3 4.10218 3.15804 3.72064 3.43934 3.43934C3.72064 3.15804 4.10218 3 4.5 3C4.89782 3 5.27936 3.15804 5.56066 3.43934C5.84196 3.72064 6 4.10218 6 4.5C6 4.89782 5.84196 5.27936 5.56066 5.56066C5.27936 5.84196 4.89782 6 4.5 6ZM9 4.5C9 4.10218 9.15804 3.72064 9.43934 3.43934C9.72064 3.15804 10.1022 3 10.5 3C10.7967 3 11.0867 3.08797 11.3334 3.2528C11.58 3.41762 11.7723 3.65189 11.8858 3.92598C11.9994 4.20006 12.0291 4.50166 11.9712 4.79264C11.9133 5.08361 11.7704 5.35088 11.5607 5.56066C11.3509 5.77044 11.0836 5.9133 10.7926 5.97118C10.5017 6.02906 10.2001 5.99935 9.92597 5.88582C9.65189 5.77229 9.41762 5.58003 9.2528 5.33335C9.08797 5.08668 9 4.79667 9 4.5ZM16.035 22.935C16.1756 23.0744 16.2872 23.2403 16.3633 23.4231C16.4395 23.6059 16.4787 23.802 16.4787 24C16.4787 24.198 16.4395 24.3941 16.3633 24.5769C16.2872 24.7597 16.1756 24.9256 16.035 25.065C15.8956 25.2056 15.7297 25.3172 15.5469 25.3933C15.3641 25.4695 15.168 25.5087 14.97 25.5087C14.772 25.5087 14.5759 25.4695 14.3931 25.3933C14.2103 25.3172 14.0444 25.2056 13.905 25.065L10.905 22.065C10.7644 21.9256 10.6528 21.7597 10.5767 21.5769C10.5005 21.3941 10.4613 21.198 10.4613 21C10.4613 20.802 10.5005 20.6059 10.5767 20.4231C10.6528 20.2403 10.7644 20.0744 10.905 19.935L13.905 16.935C14.0449 16.7951 14.2109 16.6842 14.3936 16.6085C14.5764 16.5328 14.7722 16.4939 14.97 16.4939C15.1678 16.4939 15.3636 16.5328 15.5464 16.6085C15.7291 16.6842 15.8951 16.7951 16.035 16.935C16.1749 17.0749 16.2858 17.2409 16.3615 17.4236C16.4372 17.6064 16.4761 17.8022 16.4761 18C16.4761 18.1978 16.4372 18.3936 16.3615 18.5764C16.2858 18.7591 16.1749 18.9251 16.035 19.065L14.115 21L16.035 22.935ZM25.905 19.065C25.6225 18.7825 25.4639 18.3995 25.4639 18C25.4639 17.6005 25.6225 17.2175 25.905 16.935C26.1875 16.6525 26.5705 16.4939 26.97 16.4939C27.3695 16.4939 27.7525 16.6525 28.035 16.935L31.035 19.935C31.1756 20.0744 31.2872 20.2403 31.3633 20.4231C31.4395 20.6059 31.4787 20.802 31.4787 21C31.4787 21.198 31.4395 21.3941 31.3633 21.5769C31.2872 21.7597 31.1756 21.9256 31.035 22.065L28.035 25.065C27.8956 25.2056 27.7297 25.3172 27.5469 25.3933C27.3641 25.4695 27.168 25.5087 26.97 25.5087C26.772 25.5087 26.5759 25.4695 26.3931 25.3933C26.2103 25.3172 26.0444 25.2056 25.905 25.065C25.7644 24.9256 25.6528 24.7597 25.5767 24.5769C25.5005 24.3941 25.4613 24.198 25.4613 24C25.4613 23.802 25.5005 23.6059 25.5767 23.4231C25.6528 23.2403 25.7644 23.0744 25.905 22.935L27.885 21L25.905 19.065ZM22.905 15.075C23.1059 15.1215 23.2951 15.2088 23.4607 15.3317C23.6263 15.4545 23.7648 15.6102 23.8676 15.7889C23.9703 15.9677 24.0351 16.1657 24.0579 16.3707C24.0807 16.5756 24.061 16.783 24 16.98L21 25.98C20.8956 26.2905 20.6925 26.5582 20.4217 26.7424C20.1508 26.9266 19.8271 27.0171 19.5 27C19.3374 26.9959 19.1761 26.9707 19.02 26.925C18.8326 26.8624 18.6594 26.7633 18.5104 26.6336C18.3613 26.5038 18.2394 26.3459 18.1516 26.1689C18.0638 25.9919 18.0118 25.7993 17.9987 25.6021C17.9855 25.4049 18.0115 25.2071 18.075 25.02L21.075 16.02C21.1376 15.8326 21.2367 15.6594 21.3664 15.5104C21.4962 15.3613 21.6541 15.2394 21.8311 15.1516C22.0081 15.0638 22.2007 15.0118 22.3979 14.9987C22.5951 14.9855 22.7929 15.0115 22.98 15.075H22.905Z" fill="url(#paint1_linear_519_167)"/>
<defs>
<linearGradient id="paint0_linear_519_167" x1="17.115" y1="0" x2="17.828" y2="5.91405" gradientUnits="userSpaceOnUse">
<stop stop-color="#00F4E6"/>
<stop offset="1" stop-color="#2C9AFF"/>
</linearGradient>
<linearGradient id="paint1_linear_519_167" x1="0" y1="0" x2="35.5765" y2="41.5059" gradientUnits="userSpaceOnUse">
<stop stop-color="#00F4E6"/>
<stop offset="1" stop-color="#2C9AFF"/>
</linearGradient>
</defs>
</svg>
