<svg width="32" height="32" viewBox="0 0 32 32" fill="none" xmlns="http://www.w3.org/2000/svg">
<path d="M16 0C24.8366 0 32 7.16344 32 16C32 24.8366 24.8366 32 16 32C7.16344 32 0 24.8366 0 16C0 7.16344 7.16344 0 16 0ZM11.7773 7.55469C9.44688 7.55493 7.55566 9.44683 7.55566 11.7773V20.2217C7.55573 22.5521 9.44693 24.4431 11.7773 24.4434H20.2227C22.5531 24.4431 24.4443 22.5521 24.4443 20.2217V11.7773C24.4443 9.44682 22.5531 7.55492 20.2227 7.55469H11.7773ZM16 11.7773C18.3306 11.7773 20.2225 13.6685 20.2227 15.999C20.2227 18.3297 18.3307 20.2217 16 20.2217C13.6693 20.2217 11.7773 18.3297 11.7773 15.999C11.7775 13.6685 13.6694 11.7773 16 11.7773ZM16 13.4658C14.601 13.4658 13.467 14.6 13.4668 15.999C13.4668 17.3981 14.6009 18.5322 16 18.5322C17.3991 18.5322 18.5332 17.3981 18.5332 15.999C18.533 14.6 17.399 13.4658 16 13.4658ZM20.5176 10.6113C20.982 10.6113 21.3622 10.9917 21.3623 11.4561C21.3623 11.9205 20.982 12.3008 20.5176 12.3008C20.0532 12.3007 19.6738 11.9204 19.6738 11.4561C19.6739 10.9918 20.0533 10.6114 20.5176 10.6113Z" fill="url(#paint0_linear_220_166)"/>
<defs>
<linearGradient id="paint0_linear_220_166" x1="0" y1="0" x2="32" y2="32" gradientUnits="userSpaceOnUse">
<stop stop-color="#00F4E6"/>
<stop offset="1" stop-color="#2C9AFF"/>
</linearGradient>
</defs>
</svg>
