<svg width="32" height="32" viewBox="0 0 32 32" fill="none" xmlns="http://www.w3.org/2000/svg">
<g clip-path="url(#clip0_220_133)">
<path d="M15.9998 -0.000976562C24.8363 -0.000976562 31.9998 7.16247 31.9998 15.999C31.9998 24.8356 24.8363 31.999 15.9998 31.999C7.1632 31.999 -0.000244141 24.8356 -0.000244141 15.999C-0.000244141 7.16247 7.1632 -0.000976562 15.9998 -0.000976562ZM7.948 23.8838H11.7712V12.3818H7.948V23.8838ZM21.157 12.1113C19.125 12.1114 18.2189 13.2297 17.7107 14.0117V14.0488H17.6853C17.6921 14.0367 17.7031 14.0244 17.7107 14.0117V12.3818H13.8855C13.9367 13.4603 13.8857 23.8383 13.8855 23.8838H17.7097V17.46C17.7097 17.1151 17.736 16.7732 17.8367 16.5273C18.1139 15.8395 18.742 15.1289 19.7986 15.1289C21.1831 15.1289 21.735 16.1844 21.7351 17.7295V23.8838H25.5603V17.2881C25.5603 13.7557 23.6732 12.1113 21.157 12.1113ZM9.88452 6.83691C8.57624 6.83691 7.72046 7.69591 7.72046 8.82422C7.72056 9.92847 8.5519 10.8115 9.83472 10.8115H9.85913C11.1929 10.8115 12.0221 9.92845 12.0222 8.82422C11.9968 7.69593 11.193 6.83696 9.88452 6.83691Z" fill="url(#paint0_linear_220_133)"/>
</g>
<defs>
<linearGradient id="paint0_linear_220_133" x1="-0.000244141" y1="-0.000976562" x2="31.9998" y2="31.999" gradientUnits="userSpaceOnUse">
<stop stop-color="#00F4E6"/>
<stop offset="1" stop-color="#2C9AFF"/>
</linearGradient>
<clipPath id="clip0_220_133">
<rect width="32" height="32" fill="white"/>
</clipPath>
</defs>
</svg>
