<svg width="24" height="24" viewBox="0 0 24 24" fill="none" xmlns="http://www.w3.org/2000/svg">
<path d="M12 0C18.6274 0 24 5.37258 24 12C24 18.6274 18.6274 24 12 24C5.37258 24 0 18.6274 0 12C0 5.37258 5.37258 0 12 0ZM19.1445 7.73828C19.1122 7.67731 19.0303 7.665 18.9814 7.71387L14.5498 12.1455C13.1455 13.5518 10.8536 13.551 9.4502 12.1455L5.01758 7.71387C4.9687 7.66527 4.8878 7.67745 4.85547 7.73828C4.64945 8.13005 4.53228 8.57612 4.53223 9.04785V14.9521C4.53223 16.5129 5.80162 17.7803 7.36035 17.7803H16.6396C18.1983 17.7802 19.4678 16.5128 19.4678 14.9521V9.04785C19.4677 8.57615 19.3505 8.13005 19.1445 7.73828ZM7.36035 6.21973C6.76028 6.21973 6.20295 6.40925 5.74512 6.72852C5.69288 6.76513 5.68634 6.83962 5.73145 6.88477L10.2207 11.375C11.1997 12.3521 12.7995 12.353 13.7793 11.375L18.2686 6.88477C18.3135 6.83964 18.307 6.76514 18.2549 6.72852C17.7971 6.40925 17.2396 6.21976 16.6396 6.21973H7.36035Z" fill="#4E4E4E"/>
</svg>
