<svg width="24" height="24" viewBox="0 0 24 24" fill="none" xmlns="http://www.w3.org/2000/svg">
<path d="M12 0C18.6274 0 24 5.37258 24 12C24 18.6274 18.6274 24 12 24C5.37258 24 0 18.6274 0 12C0 5.37258 5.37258 0 12 0ZM12 5.625C8.48483 5.625 5.625 8.48462 5.625 12C5.625 13.2368 5.98013 14.4293 6.65332 15.4648L5.65918 17.7832C5.59107 17.9423 5.62669 18.1273 5.74902 18.25C5.83032 18.3313 5.93947 18.3749 6.0498 18.375C6.10625 18.375 6.16382 18.3641 6.21777 18.3408L8.53516 17.3467C9.57047 18.0203 10.7632 18.375 12 18.375C15.5154 18.375 18.375 15.5154 18.375 12C18.375 8.48462 15.5154 5.625 12 5.625ZM9.71777 8.72754C9.90203 8.58395 10.1883 8.60245 10.3535 8.76758L11.123 9.53613C11.2882 9.70132 11.2882 9.97251 11.123 10.1377L10.6406 10.6191C10.6406 10.6191 10.445 11.2063 11.6191 12.3809C12.7933 13.555 13.3809 13.3594 13.3809 13.3594L13.8623 12.877C14.0275 12.7118 14.2987 12.7118 14.4639 12.877L15.2324 13.6465C15.3975 13.8117 15.416 14.0976 15.2725 14.2822C15.2663 14.2901 14.7402 14.963 14.3594 15.1211C13.3857 15.5241 12.0113 15.1202 10.4453 13.5547C8.87979 11.9887 8.4757 10.6143 8.87891 9.64062C9.03701 9.25939 9.70987 8.7337 9.71777 8.72754Z" fill="#4E4E4E"/>
</svg>
