<svg width="24" height="24" viewBox="0 0 24 24" fill="none" xmlns="http://www.w3.org/2000/svg">
<path d="M12 0C18.6274 0 24 5.37258 24 12C24 18.6274 18.6274 24 12 24C5.37258 24 0 18.6274 0 12C0 5.37258 5.37258 0 12 0ZM10.6562 5.2793C8.06905 5.2793 5.95215 7.3962 5.95215 9.9834V11.999C5.95215 13.8134 7.01103 15.4772 8.64062 16.25V18.501C8.6407 18.7024 8.89194 18.8032 9.02637 18.6523L10.9756 16.7031H13.3438C15.9309 16.7031 18.0479 14.5862 18.0479 11.999V9.9834C18.0479 7.3962 15.9309 5.2793 13.3438 5.2793H10.6562ZM9.17773 8.05176C9.42973 7.79976 9.85014 7.81636 10.1357 8.06836L11.1094 9.07617C11.4622 9.42897 11.311 10.0336 10.8574 10.168C10.5385 10.2688 10.3205 10.6214 10.4209 10.9404C10.5889 11.6796 11.5298 12.6209 12.2354 12.8057C12.5546 12.8729 12.9078 12.7049 13.0254 12.3857C13.1766 11.9322 13.7812 11.7976 14.1172 12.1504L15.0918 13.1582C15.3605 13.3934 15.3604 13.814 15.1084 14.0996L14.4189 14.7715C13.6963 15.4766 11.8317 14.67 10.1855 12.9902C8.5394 11.3104 7.81729 9.42929 8.50586 8.72363L9.17773 8.05176ZM12.6045 7.12695C14.3348 7.12695 15.7459 8.53831 15.7461 10.2686C15.7461 10.5038 15.7125 10.756 15.6621 10.9912C15.6285 11.1088 15.5113 11.1928 15.377 11.1592C15.2594 11.1256 15.1921 11.0082 15.2256 10.8906C15.276 10.689 15.293 10.487 15.293 10.2686C15.2928 8.79031 14.0828 7.58105 12.6045 7.58105H12.4033C12.2857 7.58104 12.168 7.4965 12.168 7.37891C12.1682 7.26144 12.2526 7.14453 12.3701 7.14453C12.4538 7.14448 12.5375 7.12703 12.6045 7.12695ZM12.6045 8.01758C13.8308 8.01758 14.8388 9.02562 14.8389 10.252C14.8389 10.3359 14.839 10.4199 14.8223 10.5039C14.8055 10.6215 14.6879 10.7229 14.5703 10.7061C14.4529 10.6892 14.3526 10.5715 14.3691 10.4541C14.3691 10.3869 14.3857 10.3192 14.3857 10.252C14.4025 9.27762 13.5956 8.47168 12.6045 8.47168C12.5374 8.47168 12.4704 8.47152 12.4033 8.48828C12.2857 8.50504 12.1682 8.40372 12.1514 8.28613C12.1348 8.16877 12.2352 8.05115 12.3525 8.03418C12.4364 8.01741 12.5206 8.01758 12.6045 8.01758ZM12.6221 8.94141C13.3442 8.9248 13.949 9.52962 13.9492 10.2686C13.9492 10.3862 13.8481 10.4873 13.7305 10.4873C13.6129 10.4873 13.5117 10.3861 13.5117 10.2686C13.5115 9.78162 13.109 9.37908 12.6221 9.37891C12.5045 9.37891 12.4034 9.27773 12.4033 9.16016C12.4033 9.04256 12.5045 8.94141 12.6221 8.94141Z" fill="#4E4E4E"/>
</svg>
