<svg width="57" height="56" viewBox="0 0 57 56" fill="none" xmlns="http://www.w3.org/2000/svg">
<rect x="0.5" width="56" height="56" rx="12" fill="#0175BC"/>
<path d="M26.7229 12.0088H31.165V16.4509H26.7229V12.0088Z" fill="white"/>
<path opacity="0.1" d="M26.7229 16.0068H31.165V16.451H26.7229V16.0068Z" fill="#010101"/>
<path opacity="0.2" d="M26.7229 12.0088H31.165V12.453H26.7229V12.0088Z" fill="white"/>
<path d="M26.7229 17.3389H31.165V21.7809H26.7229V17.3389Z" fill="white"/>
<path opacity="0.1" d="M26.7229 21.3369H31.165V21.7811H26.7229V21.3369Z" fill="#010101"/>
<path opacity="0.2" d="M26.7229 17.3389H31.165V17.7831H26.7229V17.3389Z" fill="white"/>
<path d="M26.7229 22.6699H31.165V27.112H26.7229V22.6699Z" fill="white"/>
<path opacity="0.1" d="M26.7229 26.668H31.165V27.1122H26.7229V26.668Z" fill="#010101"/>
<path opacity="0.2" d="M26.7229 22.6699H31.165V23.1141H26.7229V22.6699Z" fill="white"/>
<path d="M21.3923 17.3389H25.8344V21.7809H21.3923V17.3389Z" fill="white"/>
<path opacity="0.1" d="M21.3921 21.3369H25.8342V21.7811H21.3921V21.3369Z" fill="#010101"/>
<path opacity="0.2" d="M21.3923 17.3389H25.8344V17.7831H21.3923V17.3389Z" fill="white"/>
<path d="M21.3921 22.6699H25.8342V27.112H21.3921V22.6699Z" fill="white"/>
<path opacity="0.1" d="M21.3923 26.668H25.8344V27.1122H21.3923V26.668Z" fill="#010101"/>
<path opacity="0.2" d="M21.3921 22.6699H25.8342V23.1141H21.3921V22.6699Z" fill="white"/>
<path d="M16.062 17.3389H20.5041V21.7809H16.062V17.3389Z" fill="white"/>
<path opacity="0.1" d="M16.062 21.3369H20.5041V21.7811H16.062V21.3369Z" fill="#010101"/>
<path opacity="0.2" d="M16.062 17.3389H20.5041V17.7831H16.062V17.3389Z" fill="white"/>
<path d="M16.062 22.6699H20.5041V27.112H16.062V22.6699Z" fill="white"/>
<path opacity="0.1" d="M16.062 26.668H20.5041V27.1122H16.062V26.668Z" fill="#010101"/>
<path opacity="0.2" d="M16.062 22.6699H20.5041V23.1141H16.062V22.6699Z" fill="white"/>
<path d="M10.7314 22.6699H15.1735V27.112H10.7314V22.6699Z" fill="white"/>
<path opacity="0.1" d="M10.7314 26.668H15.1735V27.1122H10.7314V26.668Z" fill="#010101"/>
<path opacity="0.2" d="M10.7314 22.6699H15.1735V23.1141H10.7314V22.6699Z" fill="white"/>
<path d="M32.0532 22.6699H36.4953V27.112H32.0532V22.6699Z" fill="white"/>
<path opacity="0.1" d="M32.0535 26.668H36.4955V27.1122H32.0535V26.668Z" fill="#010101"/>
<path opacity="0.2" d="M32.0532 22.6699H36.4953V23.1141H32.0532V22.6699Z" fill="white"/>
<path d="M49.1016 26.6198C48.9784 26.54 46.4398 24.9366 44.04 25.3184C43.4588 22.8857 41.2273 21.3708 41.118 21.298L40.5003 20.8867C40.5003 20.8867 40.1137 21.2875 39.9849 21.4212C39.9379 21.47 39.8167 21.6095 39.6721 21.8616C39.2726 22.5585 38.6951 24.1161 39.0149 26.9972C39.0462 27.2679 38.9646 27.5351 38.7911 27.7277C38.6349 27.903 38.418 28.0001 38.1803 28.0001H7.17773V28.8886C7.17773 42.5202 17.1186 43.9916 21.3924 43.9916C32.3969 43.9916 40.0456 37.3077 43.3841 31.4167C47.7828 30.7157 49.3063 27.9524 49.3862 27.8205L49.8217 27.0831L49.1016 26.6198Z" fill="white"/>
<path opacity="0.2" d="M38.1803 28.0001H7.17773V28.4443H38.1803C38.418 28.4443 38.6349 28.3471 38.7911 28.1719C38.9646 27.9793 39.0462 27.7121 39.0149 27.4414C39.0047 27.3497 39.0064 27.2765 38.998 27.1875C38.9814 27.3885 38.9228 27.5815 38.7911 27.7277C38.6349 27.9029 38.418 28.0001 38.1803 28.0001Z" fill="white"/>
<path opacity="0.2" d="M49.1016 26.6198C48.9784 26.54 46.4398 24.9366 44.0401 25.3184C43.4588 22.8857 41.2273 21.3708 41.118 21.298L40.5003 20.8867C40.5003 20.8867 40.1137 21.2875 39.9849 21.4212C39.9496 21.4578 39.8729 21.546 39.776 21.6948C39.4416 22.2086 38.8677 23.4446 38.9334 25.7747C38.9538 23.105 39.836 22.0201 39.9849 21.8654L40.5003 21.3309L41.118 21.7422C41.2273 21.815 43.4588 23.3299 44.0401 25.7626C46.4398 25.3809 49.8217 27.0831 49.8217 27.0831L49.1016 26.6198Z" fill="white"/>
<path opacity="0.1" d="M49.3862 27.3765C49.3063 27.5084 47.7828 30.2717 43.3841 30.9727C40.0456 36.8636 32.3969 43.5476 21.3924 43.5476C17.1186 43.5476 7.17773 42.0761 7.17773 28.4445V28.8887C7.17773 42.5204 17.1186 43.9918 21.3924 43.9918C32.3969 43.9918 40.0456 37.3079 43.3841 31.4169C47.7828 30.7159 49.3063 27.9526 49.3862 27.8207L49.8217 27.0833L49.6316 26.9609L49.3862 27.3765Z" fill="#010101"/>
<path d="M31.165 17.3393H26.7229V21.7814H31.165V17.3393ZM31.165 22.6698H26.7229V27.1119H31.165V22.6698ZM36.4955 22.6698H32.0534V27.1119H36.4955V22.6698ZM31.165 12.0088H26.7229V16.4509H31.165V12.0088ZM25.8345 17.3393H21.3924V21.7814H25.8345V17.3393ZM15.1735 22.6698H10.7314V27.1119H15.1735V22.6698ZM49.1016 26.6199C48.9784 26.5401 46.4398 24.9368 44.04 25.3185C43.4588 22.8858 41.2273 21.371 41.118 21.2981L40.5003 20.8869C40.5003 20.8869 40.1136 21.2876 39.9849 21.4213C39.9378 21.4701 39.8167 21.6096 39.6721 21.8617C39.2726 22.5586 38.6951 24.1162 39.0149 26.9973C39.0462 27.268 38.9646 27.5352 38.7911 27.7279C38.6349 27.9031 38.418 28.0003 38.1803 28.0003H7.17773V28.8887C7.17773 42.5203 17.1186 43.9918 21.3924 43.9918C32.3969 43.9918 40.0456 37.3078 43.3841 31.4169C47.7828 30.7158 49.3063 27.9526 49.3862 27.8207L49.8217 27.0832L49.1016 26.6199ZM25.8345 22.6698H21.3924V27.1119H25.8345V22.6698ZM20.504 17.3393H16.0619V21.7814H20.504V17.3393ZM20.504 22.6698H16.0619V27.1119H20.504V22.6698Z" fill="url(#paint0_linear_261_104)"/>
<defs>
<linearGradient id="paint0_linear_261_104" x1="10.2445" y1="21.426" x2="44.9194" y2="37.5952" gradientUnits="userSpaceOnUse">
<stop stop-color="white" stop-opacity="0.2"/>
<stop offset="1" stop-color="white" stop-opacity="0"/>
</linearGradient>
</defs>
</svg>
