<svg width="65" height="64" viewBox="0 0 65 64" fill="none" xmlns="http://www.w3.org/2000/svg">
<rect x="0.5" width="56" height="56" rx="12" fill="#FFDF00"/>
<path d="M35.9419 45.0136C37.1513 44.3111 38.6401 44.7808 39.7046 45.688C40.6167 46.4654 41.7625 46.9455 43.3082 46.9455C45.4886 46.9455 46.8815 45.8557 46.8815 44.35C46.8815 42.5455 45.4505 41.9064 43.0504 40.8566L41.7349 40.2921C37.9375 38.6744 35.4149 36.6477 35.4149 32.3632C35.4149 28.4165 38.422 25.4121 43.1215 25.4121C45.6776 25.4121 47.6848 26.0917 49.2627 27.7719C50.1433 28.7096 49.7582 30.1698 48.6758 30.8648C47.5011 31.6191 46.0309 31.0339 44.7992 30.3767C44.3138 30.1177 43.7667 30.0015 43.1215 30.0015C41.5802 30.0015 40.6033 30.9793 40.6033 32.2566C40.6033 33.8353 41.5811 34.4744 43.8388 35.4522L45.1544 36.0157C49.6255 37.933 52.1499 39.8877 52.1499 44.2824C52.1499 49.0202 48.4281 51.6157 43.4299 51.6157C39.6898 51.6157 36.9628 50.2518 35.1963 48.2434C34.2953 47.2189 34.7622 45.6989 35.9419 45.0136ZM17.2423 45.5896C18.4928 44.8325 19.9546 45.4425 21.1136 46.3333C21.5838 46.6947 22.1563 46.9127 22.9144 46.9127C24.6433 46.9127 25.734 46.2362 25.734 43.6061V28.3438C25.734 26.8907 26.912 25.7127 28.3651 25.7127C29.8182 25.7127 30.9962 26.8907 30.9962 28.3438V43.6771C30.9962 49.1259 27.8016 51.606 23.1384 51.606C20.0431 51.606 17.9049 50.4292 16.4961 48.7634C15.6391 47.7501 16.107 46.2769 17.2423 45.5896Z" fill="black"/>
</svg>
