<svg width="57" height="56" viewBox="0 0 57 56" fill="none" xmlns="http://www.w3.org/2000/svg">
<rect x="0.5" width="56" height="56" rx="12" fill="#326DE6"/>
<path d="M20.3474 49.3835C19.2916 49.3835 18.2947 48.9144 17.6201 48.0639L7.35645 35.3074C6.68191 34.4569 6.41806 33.372 6.68191 32.3161L10.3476 16.3924C10.5821 15.3366 11.286 14.4862 12.2538 14.017L27.0924 6.9201C27.5617 6.68572 28.0896 6.56836 28.6174 6.56836C29.1453 6.56836 29.673 6.68555 30.1423 6.92028L44.9811 13.9877C45.9488 14.4569 46.6526 15.3074 46.8872 16.3631L50.5528 32.2868C50.7875 33.3425 50.5528 34.4276 49.8785 35.2781L39.6144 48.0346C38.9399 48.8557 37.9429 49.3542 36.8872 49.3542L20.3477 49.3835H20.3474Z" fill="#326DE6"/>
<path d="M28.588 7.3022C28.9986 7.3022 29.4092 7.39009 29.7904 7.56605L44.6292 14.6335C45.3916 15.0147 45.978 15.7186 46.154 16.5398L49.8197 32.4634C50.0249 33.3139 49.8197 34.1937 49.2625 34.8681L38.9986 47.6248C38.4708 48.2992 37.6496 48.6804 36.7992 48.6804H20.3475C19.497 48.6804 18.676 48.2992 18.1481 47.6248L7.88429 34.8681C7.35642 34.1937 7.15099 33.3139 7.32712 32.4634L10.9928 16.5398C11.198 15.6893 11.7552 14.9854 12.5176 14.6335L27.3566 7.53693C27.7378 7.39027 28.1776 7.30238 28.5881 7.30238L28.588 7.3022ZM28.588 5.92383C27.9722 5.92383 27.3564 6.07049 26.7698 6.33434L11.9312 13.4313C10.7581 13.9885 9.93703 15.0147 9.64371 16.2757L5.97804 32.1996C5.6849 33.4606 5.97804 34.7509 6.79925 35.7773L17.0631 48.5339C17.855 49.5309 19.0572 50.0881 20.3182 50.0881H36.7698C38.0308 50.0881 39.2332 49.5309 40.0249 48.5339L50.2889 35.7772C51.11 34.7802 51.4033 33.4606 51.11 32.1994L47.4443 16.2757C47.1512 15.0147 46.33 13.9885 45.157 13.4313L30.3768 6.33416C29.8197 6.07049 29.2039 5.92383 28.588 5.92383Z" fill="white"/>
<path d="M43.4559 31.2015C43.4267 31.2015 43.4267 31.2015 43.4559 31.2015H43.4267C43.3974 31.2015 43.3681 31.2015 43.3681 31.1722C43.3095 31.1722 43.2509 31.1429 43.1921 31.1429C42.9868 31.1136 42.8109 31.0843 42.6349 31.0843C42.5469 31.0843 42.459 31.0843 42.3416 31.0549H42.3123C41.6965 30.9963 41.198 30.9377 40.7287 30.791C40.5234 30.703 40.4648 30.5858 40.4061 30.4684C40.4061 30.4391 40.3768 30.4391 40.3768 30.4098L39.9955 30.2926C40.1757 28.9131 40.1061 27.5124 39.7903 26.1575C39.4701 24.7913 38.9144 23.4913 38.1481 22.3159L38.4414 22.052V21.9934C38.4414 21.8468 38.4707 21.7001 38.5879 21.5534C38.9398 21.2308 39.3798 20.967 39.9077 20.6444C39.9955 20.5858 40.0834 20.5565 40.1715 20.4977C40.3475 20.4098 40.4941 20.3219 40.6701 20.2045C40.6994 20.1753 40.758 20.146 40.8167 20.0874C40.846 20.0579 40.8753 20.0579 40.8753 20.0286C41.2859 19.6767 41.3739 19.0902 41.0806 18.7088C40.9339 18.5036 40.6701 18.3864 40.4061 18.3864C40.1717 18.3864 39.9662 18.4743 39.761 18.6209L39.7024 18.6795C39.6438 18.7088 39.6143 18.7676 39.5557 18.7969C39.4091 18.9435 39.2917 19.0607 39.1745 19.2074C39.1159 19.266 39.0573 19.354 38.9693 19.4126C38.5586 19.8526 38.1774 20.2045 37.7961 20.4684C37.7083 20.527 37.6204 20.5565 37.5323 20.5565C37.4737 20.5565 37.4149 20.5565 37.3563 20.527H37.2977L36.9457 20.7617C36.5644 20.3512 36.1539 19.9993 35.7434 19.6474C33.9757 18.2656 31.8483 17.4208 29.6143 17.2132L29.585 16.832L29.5264 16.7734C29.4384 16.6854 29.3212 16.5975 29.2917 16.3922C29.2624 15.9229 29.3212 15.3951 29.3798 14.8086V14.7793C29.3798 14.6912 29.4091 14.574 29.4384 14.486C29.4677 14.3102 29.497 14.1341 29.5264 13.9288V13.665C29.5264 13.1371 29.1157 12.6973 28.6173 12.6973C28.3826 12.6973 28.1481 12.8145 27.9721 12.9904C27.7963 13.1664 27.7083 13.4009 27.7083 13.665V13.8995C27.7083 14.1048 27.7376 14.2807 27.7961 14.4567C27.8254 14.5447 27.8254 14.6326 27.8547 14.75V14.7793C27.9133 15.3658 28.0014 15.8936 27.9428 16.3629C27.9135 16.5682 27.7961 16.6561 27.7083 16.7441L27.6497 16.8027L27.6202 17.1839C27.0923 17.2425 26.5644 17.3011 26.0366 17.4185C23.7786 17.9171 21.7844 19.0609 20.2303 20.7029L19.9369 20.4977H19.8784C19.8198 20.4977 19.761 20.527 19.7024 20.527C19.6143 20.527 19.5264 20.4977 19.4384 20.4391C19.0572 20.1752 18.6759 19.7939 18.2654 19.354C18.2068 19.2955 18.1482 19.2074 18.0602 19.1488C17.9428 19.0021 17.8254 18.8848 17.6788 18.7383C17.6495 18.7088 17.5909 18.6797 17.5323 18.6209C17.503 18.5916 17.4737 18.5916 17.4737 18.5623C17.292 18.4122 17.0641 18.3293 16.8285 18.3276C16.5644 18.3276 16.3006 18.445 16.1539 18.6502C15.8606 19.0314 15.9487 19.6179 16.3592 19.9698C16.3885 19.9698 16.3885 19.9993 16.4178 19.9993C16.4764 20.0286 16.5058 20.0872 16.5644 20.1165C16.7404 20.2337 16.8871 20.3217 17.063 20.4098C17.1511 20.4391 17.239 20.4977 17.327 20.5565C17.8547 20.8789 18.2947 21.1429 18.6466 21.4656C18.7933 21.612 18.7933 21.7587 18.7933 21.9054V21.964L19.0865 22.228C19.0279 22.3159 18.9693 22.3746 18.9398 22.4625C17.4735 24.7793 16.9164 27.5066 17.2976 30.2045L16.9164 30.3217C16.9164 30.3512 16.8871 30.3512 16.8871 30.3803C16.8285 30.4977 16.7404 30.6151 16.5644 30.703C16.1246 30.8496 15.5967 30.9084 14.981 30.967H14.9515C14.8636 30.967 14.7463 30.967 14.6584 30.9963C14.4824 30.9963 14.3064 31.0256 14.1012 31.0549C14.0426 31.0549 13.984 31.0843 13.9252 31.0843C13.8959 31.0843 13.8666 31.0843 13.8372 31.1136C13.3093 31.2308 12.9867 31.7294 13.0747 32.1985C13.1628 32.6092 13.544 32.8732 14.0131 32.8732C14.1012 32.8732 14.1598 32.8732 14.2478 32.8438C14.2771 32.8438 14.3064 32.8438 14.3064 32.8145C14.365 32.8145 14.4236 32.7852 14.4822 32.7852C14.6877 32.7266 14.8343 32.668 15.0103 32.5799C15.0982 32.5506 15.1861 32.4918 15.2741 32.4627H15.3034C15.8606 32.2573 16.3592 32.0813 16.8285 32.0227H16.8871C17.063 32.0227 17.1804 32.1106 17.2683 32.1694C17.2976 32.1694 17.2976 32.1987 17.3269 32.1987L17.7376 32.1401C18.4414 34.31 19.7903 36.2456 21.5792 37.6532C21.9897 37.9757 22.4002 38.2397 22.8402 38.5037L22.6642 38.8848C22.6642 38.9142 22.6935 38.9142 22.6935 38.9434C22.7521 39.0607 22.8107 39.2074 22.7521 39.4126C22.5763 39.8526 22.3123 40.2924 21.9897 40.791V40.8203C21.9311 40.9084 21.8725 40.967 21.8139 41.0549C21.6965 41.2015 21.6085 41.3482 21.4911 41.5242C21.4618 41.5534 21.4325 41.612 21.4032 41.6708C21.4032 41.7001 21.3739 41.7294 21.3739 41.7294C21.1394 42.228 21.3153 42.7852 21.7551 42.9904C21.8723 43.049 21.9897 43.0785 22.107 43.0785C22.459 43.0785 22.8109 42.8438 22.9868 42.5211C22.9868 42.4918 23.0161 42.4625 23.0161 42.4625C23.0454 42.4039 23.0747 42.3454 23.104 42.3159C23.1921 42.1106 23.2214 41.964 23.28 41.788L23.3681 41.5242C23.5733 40.9377 23.72 40.4684 23.9838 40.0579C24.101 39.8819 24.2479 39.8526 24.365 39.7939C24.3943 39.7939 24.3943 39.7939 24.4236 39.7646L24.6291 39.3833C25.9194 39.8819 27.327 40.1458 28.7345 40.1458C29.585 40.1458 30.4648 40.0579 31.286 39.8526C31.8028 39.7371 32.312 39.5902 32.8109 39.4126L32.9867 39.7353C33.0161 39.7353 33.0161 39.7353 33.0454 39.7646C33.1921 39.7939 33.3093 39.8526 33.4267 40.0286C33.6612 40.4391 33.8372 40.9377 34.0424 41.4949V41.5242L34.1305 41.788C34.1891 41.964 34.2184 42.1399 34.3063 42.3159C34.3357 42.3745 34.365 42.4039 34.3943 42.4625C34.3943 42.4918 34.4238 42.5211 34.4238 42.5211C34.5996 42.8731 34.9515 43.0785 35.3034 43.0785C35.4208 43.0785 35.5382 43.049 35.6553 42.9904C35.8606 42.8732 36.0366 42.6971 36.0953 42.4625C36.1539 42.228 36.1539 41.964 36.0367 41.7294C36.0367 41.7001 36.0073 41.7001 36.0073 41.6708C35.978 41.6122 35.9487 41.5536 35.9194 41.5242C35.8313 41.3482 35.7141 41.2015 35.5968 41.0549C35.5382 40.967 35.4796 40.9084 35.421 40.8205V40.791C35.0982 40.2924 34.8049 39.8526 34.6584 39.4126C34.5998 39.2074 34.6584 39.0902 34.6877 38.9435C34.6877 38.9142 34.717 38.9142 34.717 38.885L34.5703 38.533C36.1246 37.6239 37.4442 36.3335 38.4414 34.75C38.9693 33.9288 39.3798 33.0197 39.6729 32.1106L40.0248 32.1692C40.0543 32.1692 40.0543 32.1399 40.0834 32.1399C40.2008 32.0813 40.2889 31.9934 40.4648 31.9934H40.5234C40.9927 32.052 41.4911 32.2278 42.0485 32.4332H42.0778C42.1656 32.4625 42.2535 32.5211 42.3416 32.5504C42.5176 32.6385 42.6642 32.6971 42.8695 32.7559C42.9281 32.7559 42.9867 32.7852 43.0454 32.7852C43.0747 32.7852 43.104 32.7852 43.1333 32.8145C43.2214 32.8438 43.28 32.8438 43.3681 32.8438C43.8079 32.8438 44.1891 32.5506 44.3064 32.1694C44.3064 31.8175 43.9838 31.3482 43.4559 31.2017V31.2015ZM29.8782 29.7646L28.5879 30.3805L27.2976 29.7646L26.9751 28.3864L27.8547 27.272H29.2917L30.1715 28.3864L29.8784 29.7646H29.8782ZM37.5323 26.7148C37.7598 27.6846 37.8291 28.6847 37.7376 29.6765L33.2507 28.3864C32.8402 28.2692 32.6056 27.8585 32.6935 27.448C32.7228 27.3306 32.7816 27.2132 32.8695 27.1254L36.418 23.9288C36.9164 24.75 37.2976 25.6886 37.5323 26.7148ZM35.0103 22.1694L31.1687 24.8967C30.846 25.1019 30.4061 25.0431 30.1422 24.7207C30.0543 24.6326 30.025 24.5153 29.9955 24.3981L29.7317 19.6179C31.7289 19.8479 33.5894 20.7472 35.0103 22.1694ZM26.5058 19.7644C26.8285 19.7058 27.1216 19.6472 27.4442 19.5886L27.1804 24.2805C27.1511 24.6911 26.8285 25.043 26.3885 25.043C26.2713 25.043 26.1246 25.0137 26.0366 24.9551L22.1363 22.1694C23.3388 20.967 24.8343 20.1456 26.5058 19.7644ZM20.7287 23.9286L24.2184 27.0371C24.541 27.3011 24.5703 27.7995 24.3064 28.1222C24.2184 28.2394 24.1012 28.3274 23.9545 28.3569L19.4091 29.6765C19.2331 27.6824 19.6729 25.6589 20.7287 23.9286ZM19.9368 31.8759L24.5998 31.084C24.981 31.0547 25.3329 31.3187 25.4208 31.6999C25.4501 31.8757 25.4501 32.0226 25.3915 32.1692L23.6026 36.4799C21.9604 35.4242 20.6406 33.8113 19.9368 31.8759ZM30.6408 37.7117C29.9662 37.8583 29.2917 37.9462 28.5879 37.9462C27.5616 37.9462 26.5644 37.7704 25.6262 37.4771L27.9428 33.2836C28.1774 33.0195 28.5586 32.9023 28.8812 33.0783C29.0181 33.1622 29.1376 33.2717 29.2331 33.4007L31.4911 37.4771C31.2273 37.565 30.9339 37.6238 30.6406 37.7117H30.6408ZM36.3592 33.6355C35.626 34.8084 34.6582 35.7468 33.544 36.4799L31.6965 32.0517C31.6085 31.6999 31.7551 31.3187 32.1071 31.1426C32.2242 31.084 32.3709 31.0547 32.5176 31.0547L37.2097 31.8466C37.0337 32.4917 36.7404 33.0783 36.3592 33.6355Z" fill="white"/>
</svg>
