<svg width="57" height="56" viewBox="0 0 57 56" fill="none" xmlns="http://www.w3.org/2000/svg">
<g clip-path="url(#clip0_261_138)">
<path d="M56.5 0H0.5V56H56.5V0Z" fill="#512BD4"/>
<path d="M10.4811 35.7774C10.0852 35.7774 9.7486 35.6455 9.47143 35.3816C9.19425 35.1109 9.05566 34.7896 9.05566 34.4175C9.05566 34.0385 9.19425 33.7138 9.47143 33.4431C9.7486 33.1724 10.0852 33.0371 10.4811 33.0371C10.8837 33.0371 11.2236 33.1724 11.5007 33.4431C11.7845 33.7138 11.9264 34.0385 11.9264 34.4175C11.9264 34.7896 11.7845 35.1109 11.5007 35.3816C11.2236 35.6455 10.8837 35.7774 10.4811 35.7774Z" fill="white"/>
<path d="M26.31 35.5545H23.7362L16.9554 24.8569C16.7839 24.5862 16.6419 24.3054 16.5298 24.0144H16.4703C16.5231 24.3257 16.5495 24.9922 16.5495 26.0138V35.5545H14.2727V21H17.0147L23.568 31.4439C23.8451 31.877 24.0233 32.1747 24.1025 32.3371H24.1421C24.0761 31.9514 24.0431 31.2985 24.0431 30.3782V21H26.31V35.5545Z" fill="white"/>
<path d="M37.3972 35.5545H29.4285V21H37.0805V23.0503H31.7845V27.1709H36.6647V29.211H31.7845V33.5144H37.3972V35.5545Z" fill="white"/>
<path d="M48.7222 23.0503H44.6438V35.5545H42.2877V23.0503H38.2192V21H48.7222V23.0503Z" fill="white"/>
</g>
<defs>
<clipPath id="clip0_261_138">
<rect x="0.5" width="56" height="56" rx="12" fill="white"/>
</clipPath>
</defs>
</svg>
