<svg width="57" height="56" viewBox="0 0 57 56" fill="none" xmlns="http://www.w3.org/2000/svg">
<rect x="0.5" width="56" height="56" rx="12" fill="#5A9FD4"/>
<path d="M28.2613 7.71908C26.6069 7.72677 25.0271 7.86787 23.637 8.11386C19.5419 8.83735 18.7983 10.3516 18.7983 13.1442V16.8324H28.4755V18.0617H18.7983H15.1666C12.3541 18.0617 9.89141 19.7522 9.12117 22.968C8.23266 26.6541 8.19328 28.9543 9.12117 32.8032C9.80909 35.6681 11.4518 37.7094 14.2643 37.7094H17.5915V33.288C17.5915 30.0939 20.3551 27.2765 23.637 27.2765H33.3029C35.9936 27.2765 38.1414 25.0611 38.1414 22.3589V13.1442C38.1414 10.5217 35.929 8.55158 33.3029 8.11386C31.6405 7.83713 29.9156 7.7114 28.2613 7.71908ZM23.0279 10.6854C24.0275 10.6854 24.8437 11.5151 24.8437 12.5351C24.8437 13.5516 24.0275 14.3736 23.0279 14.3736C22.0247 14.3736 21.212 13.5516 21.212 12.5351C21.212 11.515 22.0247 10.6854 23.0279 10.6854Z" fill="white"/>
<path d="M39.3483 18.0617V22.3589C39.3483 25.6905 36.5237 28.4945 33.3029 28.4945H23.637C20.9893 28.4945 18.7983 30.7605 18.7983 33.412V42.6268C18.7983 45.2493 21.0788 46.7919 23.637 47.5443C26.7002 48.445 29.6377 48.6078 33.3029 47.5443C35.7391 46.839 38.1414 45.4194 38.1414 42.6268V38.9386H28.4755V37.7092H38.1414H42.98C45.7925 37.7092 46.8406 35.7475 47.8187 32.803C48.829 29.7716 48.786 26.8565 47.8187 22.9678C47.1236 20.168 45.7961 18.0615 42.98 18.0615H39.3483V18.0617ZM33.912 41.3974C34.9151 41.3974 35.7278 42.2194 35.7278 43.2359C35.7278 44.256 34.9151 45.0856 33.912 45.0856C32.9124 45.0856 32.0961 44.256 32.0961 43.2359C32.096 42.2194 32.9123 41.3974 33.912 41.3974Z" fill="#FFD43B"/>
</svg>
