<svg width="57" height="56" viewBox="0 0 57 56" fill="none" xmlns="http://www.w3.org/2000/svg">
<rect x="0.5" width="56" height="56" rx="12" fill="#61DAFB"/>
<path d="M50.2993 28.004C50.2993 25.1201 46.6824 22.387 41.137 20.6922C42.4167 15.0486 41.8479 10.5585 39.3419 9.12103C38.7642 8.78383 38.0888 8.62411 37.3512 8.62411V10.6029C37.76 10.6029 38.0888 10.6828 38.3643 10.8336C39.5729 11.5258 40.0973 14.1612 39.6885 17.5509C39.5907 18.3851 39.4307 19.2635 39.2352 20.1598C37.4934 19.7338 35.5916 19.4055 33.5921 19.1926C32.3924 17.5509 31.1483 16.0602 29.8952 14.7558C32.7923 12.0671 35.5117 10.594 37.3601 10.594V8.61523C34.9163 8.61523 31.717 10.3545 28.4822 13.3715C25.2474 10.3722 22.0482 8.65073 19.6043 8.65073V10.6295C21.4439 10.6295 24.1721 12.0937 27.0692 14.7646C25.8251 16.069 24.5809 17.5509 23.399 19.1926C21.3906 19.4055 19.4888 19.7338 17.747 20.1686C17.5426 19.2813 17.3915 18.4205 17.2849 17.5953C16.8672 14.2056 17.3826 11.5701 18.5823 10.8691C18.8489 10.7094 19.1955 10.6384 19.6043 10.6384V8.6596C18.8578 8.6596 18.1824 8.81933 17.5959 9.15652C15.0987 10.594 14.5388 15.0752 15.8274 20.7011C10.2998 22.4048 6.70068 25.129 6.70068 28.004C6.70068 30.8879 10.3176 33.621 15.863 35.3159C14.5833 40.9595 15.152 45.4495 17.6581 46.887C18.2357 47.2242 18.9111 47.3839 19.6576 47.3839C22.1015 47.3839 25.3007 45.6447 28.5355 42.6277C31.7703 45.627 34.9696 47.3484 37.4134 47.3484C38.1599 47.3484 38.8353 47.1887 39.4219 46.8515C41.919 45.414 42.4789 40.9328 41.1903 35.307C46.7001 33.6121 50.2993 30.8791 50.2993 28.004ZM38.7287 22.0853C38.3999 23.23 37.9911 24.4102 37.529 25.5904C37.1646 24.8805 36.7825 24.1706 36.3648 23.4607C35.956 22.7509 35.5206 22.0587 35.0851 21.3843C36.347 21.5707 37.5645 21.8014 38.7287 22.0853ZM34.6585 31.5357C33.9654 32.7336 33.2544 33.8695 32.5168 34.9254C31.1927 35.0408 29.8508 35.1029 28.5 35.1029C27.1581 35.1029 25.8162 35.0408 24.5009 34.9343C23.7633 33.8783 23.0435 32.7514 22.3503 31.5623C21.6749 30.3999 21.0617 29.2197 20.5019 28.0306C21.0529 26.8416 21.6749 25.6525 22.3414 24.4901C23.0346 23.2921 23.7456 22.1563 24.4832 21.1004C25.8073 20.985 27.1492 20.9229 28.5 20.9229C29.8419 20.9229 31.1838 20.985 32.499 21.0915C33.2366 22.1475 33.9565 23.2744 34.6496 24.4635C35.325 25.6259 35.9382 26.8061 36.4981 27.9951C35.9382 29.1842 35.325 30.3733 34.6585 31.5357ZM37.529 30.3821C38.0089 31.5712 38.4176 32.7603 38.7553 33.9138C37.5912 34.1978 36.3648 34.4374 35.094 34.6237C35.5294 33.9405 35.9649 33.2394 36.3737 32.5207C36.7825 31.8108 37.1646 31.092 37.529 30.3821ZM28.5178 39.8503C27.6913 38.9984 26.8648 38.0489 26.0472 37.0107C26.847 37.0462 27.6646 37.0728 28.4911 37.0728C29.3265 37.0728 30.1529 37.0551 30.9616 37.0107C30.1618 38.0489 29.3353 38.9984 28.5178 39.8503ZM21.906 34.6237C20.6441 34.4374 19.4266 34.2067 18.2624 33.9227C18.5912 32.778 19 31.5978 19.4621 30.4176C19.8265 31.1275 20.2086 31.8374 20.6263 32.5473C21.044 33.2572 21.4705 33.9493 21.906 34.6237ZM28.4733 16.1578C29.2998 17.0096 30.1263 17.9591 30.9439 18.9973C30.144 18.9618 29.3265 18.9352 28.5 18.9352C27.6646 18.9352 26.8382 18.953 26.0295 18.9973C26.8293 17.9591 27.6557 17.0096 28.4733 16.1578ZM21.8971 21.3843C21.4616 22.0676 21.0262 22.7686 20.6174 23.4874C20.2086 24.1973 19.8265 24.9071 19.4621 25.617C18.9822 24.428 18.5734 23.2389 18.2357 22.0853C19.3999 21.8103 20.6263 21.5707 21.8971 21.3843ZM13.8546 32.4941C10.7086 31.1541 8.67355 29.3972 8.67355 28.004C8.67355 26.6109 10.7086 24.845 13.8546 23.514C14.6188 23.1857 15.4542 22.8928 16.3162 22.6178C16.8227 24.357 17.4892 26.1672 18.3157 28.0218C17.4981 29.8675 16.8405 31.6688 16.3429 33.3992C15.4631 33.1241 14.6277 32.8224 13.8546 32.4941ZM18.6356 45.1744C17.427 44.4823 16.9027 41.8468 17.3115 38.4571C17.4093 37.623 17.5692 36.7445 17.7647 35.8483C19.5066 36.2742 21.4083 36.6025 23.4079 36.8155C24.6076 38.4571 25.8517 39.9479 27.1048 41.2523C24.2077 43.941 21.4883 45.414 19.6399 45.414C19.2399 45.4051 18.9023 45.3253 18.6356 45.1744ZM39.7151 38.4127C40.1328 41.8025 39.6174 44.4379 38.4176 45.1389C38.151 45.2986 37.8045 45.3696 37.3957 45.3696C35.5561 45.3696 32.8279 43.9055 29.9308 41.2345C31.1749 39.9301 32.4191 38.4482 33.601 36.8066C35.6094 36.5937 37.5112 36.2653 39.253 35.8305C39.4574 36.7268 39.6174 37.5875 39.7151 38.4127ZM43.1365 32.4941C42.3723 32.8224 41.5369 33.1152 40.6749 33.3903C40.1683 31.6511 39.5018 29.8409 38.6754 27.9863C39.4929 26.1406 40.1506 24.3392 40.6482 22.6089C41.528 22.884 42.3634 23.1857 43.1454 23.514C46.2913 24.8539 48.3264 26.6109 48.3264 28.004C48.3175 29.3972 46.2825 31.163 43.1365 32.4941Z" fill="white"/>
<path d="M28.4914 32.0597C30.7344 32.0597 32.5527 30.2441 32.5527 28.0044C32.5527 25.7648 30.7344 23.9492 28.4914 23.9492C26.2485 23.9492 24.4302 25.7648 24.4302 28.0044C24.4302 30.2441 26.2485 32.0597 28.4914 32.0597Z" fill="white"/>
</svg>
