<svg width="10" height="16" viewBox="0 0 10 16" fill="none" xmlns="http://www.w3.org/2000/svg">
<path d="M9.13609 10.9093L5.60359 15.1458C5.56859 15.1928 5.52959 15.2378 5.48259 15.2773C5.36059 15.3788 5.21609 15.4343 5.06909 15.4478C5.04609 15.4498 5.02309 15.4478 5.00009 15.4478C4.97709 15.4478 4.95359 15.4493 4.93059 15.4478C4.78359 15.4348 4.63909 15.3788 4.51709 15.2773C4.47009 15.2378 4.43109 15.1933 4.39609 15.1458L0.863591 10.9093C0.598091 10.5908 0.641091 10.1183 0.959091 9.85284C1.27759 9.58734 1.75009 9.63034 2.01559 9.94834L4.25009 12.6278V1.30434C4.25009 0.890343 4.58559 0.554342 5.00009 0.554342C5.41459 0.554342 5.75009 0.890343 5.75009 1.30434V12.6278L7.98409 9.94884C8.24959 9.63034 8.72259 9.58734 9.04059 9.85334C9.35859 10.1183 9.40159 10.5908 9.13609 10.9093Z" fill="url(#paint0_linear_149_101)"/>
<defs>
<linearGradient id="paint0_linear_149_101" x1="0.689453" y1="15.4487" x2="13.6045" y2="7.97361" gradientUnits="userSpaceOnUse">
<stop stop-color="#00F4E6"/>
<stop offset="1" stop-color="#2C9AFF"/>
</linearGradient>
</defs>
</svg>
