<svg width="32" height="32" viewBox="0 0 32 32" fill="none" xmlns="http://www.w3.org/2000/svg">
<path d="M25.9997 31.9999C25.7332 32.0001 25.4727 31.9204 25.2519 31.7711C25.0311 31.6219 24.8601 31.4099 24.761 31.1625L23.6357 28.3452L20.8143 27.1572C20.5723 27.0503 20.3673 26.8743 20.2249 26.6513C20.0826 26.4283 20.0094 26.1682 20.0143 25.9037C20.0193 25.6392 20.1023 25.382 20.253 25.1645C20.4036 24.947 20.6151 24.7789 20.861 24.6812L23.645 23.6265L24.761 20.8372C24.8636 20.5934 25.0359 20.3854 25.2562 20.2391C25.4766 20.0928 25.7352 20.0148 25.9997 20.0148C26.2641 20.0148 26.5227 20.0928 26.7431 20.2391C26.9634 20.3854 27.1357 20.5934 27.2383 20.8372L28.3597 23.6372L31.1597 24.7585C31.4039 24.8607 31.6125 25.0328 31.7592 25.2532C31.9059 25.4736 31.9842 25.7324 31.9842 25.9972C31.9842 26.2619 31.9059 26.5208 31.7592 26.7412C31.6125 26.9616 31.4039 27.1337 31.1597 27.2359L28.3597 28.3572L27.2383 31.1572C27.14 31.4056 26.9694 31.6187 26.7485 31.7689C26.5277 31.9192 26.2668 31.9996 25.9997 31.9999ZM13.333 27.9999C12.757 28.0068 12.1942 27.827 11.7288 27.4874C11.2635 27.1477 10.9207 26.6666 10.7517 26.1159L8.59966 19.3865L1.84899 17.1279C1.30414 16.9457 0.831283 16.5952 0.498709 16.1267C0.166135 15.6583 -0.0089367 15.0963 -0.00122029 14.5219C0.00649611 13.9474 0.196601 13.3903 0.541638 12.931C0.886674 12.4717 1.36878 12.1339 1.91833 11.9665L8.61566 9.92119L10.8717 3.18253C11.0394 2.62902 11.3864 2.14698 11.858 1.8122C12.3296 1.47743 12.8991 1.30893 13.477 1.33319C14.0531 1.33397 14.6135 1.52132 15.0743 1.86719C15.535 2.21306 15.8714 2.69886 16.033 3.25186L18.0757 9.93853L24.7823 12.0852C25.3233 12.2666 25.7936 12.6134 26.1267 13.0766C26.4599 13.5398 26.6392 14.096 26.6392 14.6665C26.6392 15.2371 26.4599 15.7932 26.1267 16.2564C25.7936 16.7196 25.3233 17.0664 24.7823 17.2479L18.0637 19.3972L15.9143 26.1159C15.7453 26.6666 15.4025 27.1477 14.9371 27.4874C14.4718 27.827 13.909 28.0068 13.333 27.9999ZM13.4823 4.03053L10.933 11.4185C10.8658 11.6202 10.7513 11.8029 10.5992 11.9513C10.447 12.0997 10.2616 12.2096 10.0583 12.2719L2.69699 14.5172L10.085 17.0732C10.2838 17.1394 10.4641 17.2516 10.6115 17.4005C10.7588 17.5495 10.8689 17.731 10.933 17.9305L13.293 25.3039L15.733 17.9305C15.7977 17.7281 15.9099 17.544 16.0602 17.3937C16.2105 17.2434 16.3945 17.1312 16.597 17.0665L23.9703 14.7079C23.9798 14.7052 23.9888 14.7012 23.997 14.6959L16.597 12.2665C16.3916 12.2009 16.2053 12.0864 16.0538 11.9329C15.9024 11.7794 15.7905 11.5914 15.7277 11.3852L13.4823 4.03053ZM27.333 9.33319C27.0358 9.33318 26.747 9.23386 26.5127 9.05099C26.2784 8.86811 26.1119 8.61219 26.0397 8.32386L25.5637 6.41719L23.653 5.90386C23.3658 5.8267 23.1127 5.65576 22.9338 5.41821C22.7549 5.18067 22.6606 4.89014 22.6658 4.59283C22.671 4.29551 22.7755 4.00847 22.9626 3.77734C23.1497 3.5462 23.4086 3.38424 23.6983 3.31719L25.565 2.88386L26.0397 1.00919C26.1119 0.720891 26.2784 0.464996 26.5128 0.282152C26.7471 0.0993083 27.0358 0 27.333 0C27.6302 0 27.9189 0.0993083 28.1532 0.282152C28.3876 0.464996 28.5541 0.720891 28.6263 1.00919L29.0983 2.89986L30.989 3.37319C31.2773 3.44545 31.5332 3.61196 31.716 3.84628C31.8989 4.08061 31.9982 4.36931 31.9982 4.66653C31.9982 4.96375 31.8989 5.25244 31.716 5.48677C31.5332 5.72109 31.2773 5.8876 30.989 5.95986L29.0983 6.43319L28.6263 8.32386C28.5541 8.61219 28.3876 8.86811 28.1533 9.05099C27.9189 9.23386 27.6302 9.33318 27.333 9.33319Z" fill="url(#paint0_linear_143_243)"/>
<defs>
<linearGradient id="paint0_linear_143_243" x1="-0.00146484" y1="0" x2="31.9984" y2="31.9997" gradientUnits="userSpaceOnUse">
<stop stop-color="#00F4E6"/>
<stop offset="1" stop-color="#2C9AFF"/>
</linearGradient>
</defs>
</svg>
