<svg width="22" height="32" viewBox="0 0 22 32" fill="none" xmlns="http://www.w3.org/2000/svg">
<path d="M9.98665 32.0001C9.54982 31.9985 9.11855 31.902 8.72266 31.7174C8.076 31.4294 7.55665 30.9154 7.26207 30.2717C6.96749 29.6281 6.91791 28.899 7.12266 28.2214L9.20399 21.3334H4.29999C3.67519 21.3342 3.05891 21.1885 2.50053 20.9082C1.94215 20.6279 1.4572 20.2207 1.08454 19.7192C0.711888 19.2177 0.461894 18.6359 0.354594 18.0203C0.247295 17.4048 0.285674 16.7727 0.466657 16.1747L4.49866 2.8414C4.74443 2.01671 5.25104 1.29397 5.94246 0.781653C6.63387 0.26934 7.4728 -0.00490884 8.33332 6.65191e-05H13.2573C13.817 0.000534709 14.3682 0.136501 14.8639 0.396346C15.3596 0.656191 15.785 1.03219 16.1038 1.4922C16.4226 1.95222 16.6252 2.48258 16.6945 3.03795C16.7637 3.59333 16.6974 4.15721 16.5013 4.6814L14.2573 10.6667H17.6667C18.3934 10.6667 19.1064 10.8646 19.7291 11.2393C20.3518 11.6139 20.8607 12.1512 21.2011 12.7933C21.5415 13.4354 21.7005 14.1581 21.6611 14.8837C21.6216 15.6094 21.3853 16.3106 20.9773 16.9121L12.444 30.6454C12.1802 31.0585 11.8171 31.399 11.3878 31.6356C10.9585 31.8723 10.4768 31.9976 9.98665 32.0001ZM8.33332 2.66673C8.04699 2.66645 7.76817 2.75836 7.53812 2.92885C7.30807 3.09935 7.13903 3.33937 7.05599 3.6134L3.02399 16.9467C2.96362 17.146 2.95074 17.3565 2.98637 17.5616C3.022 17.7667 3.10516 17.9606 3.22919 18.1278C3.35322 18.295 3.51466 18.4308 3.70061 18.5244C3.88655 18.618 4.09182 18.6667 4.29999 18.6667H11C11.2082 18.6667 11.4134 18.7155 11.5994 18.8091C11.7853 18.9026 11.9468 19.0385 12.0708 19.2057C12.1948 19.3728 12.278 19.5667 12.3136 19.7718C12.3492 19.9769 12.3364 20.1875 12.276 20.3867L9.67999 28.9761C9.66798 29.0077 9.66268 29.0414 9.66441 29.0752C9.66613 29.1089 9.67486 29.142 9.69003 29.1722C9.7052 29.2024 9.72648 29.2291 9.75252 29.2507C9.77857 29.2722 9.80881 29.2881 9.84132 29.2974C9.8708 29.3163 9.9039 29.3288 9.93851 29.3341C9.97312 29.3394 10.0085 29.3374 10.0422 29.3283C10.076 29.3191 10.1075 29.303 10.1347 29.2809C10.1619 29.2588 10.1841 29.2313 10.2 29.2001L18.7333 15.4667C18.8825 15.2643 18.9715 15.0239 18.9899 14.7731C19.0083 14.5223 18.9554 14.2714 18.8373 14.0494C18.7279 13.8331 18.5604 13.6516 18.3537 13.5252C18.1469 13.3987 17.909 13.3323 17.6667 13.3334H12.3333C12.1178 13.3335 11.9055 13.2814 11.7145 13.1816C11.5236 13.0817 11.3597 12.937 11.2369 12.7599C11.1141 12.5829 11.036 12.3787 11.0094 12.1648C10.9827 11.951 11.0083 11.7339 11.084 11.5321L14.004 3.7454C14.0489 3.62467 14.0639 3.4949 14.0479 3.36711C14.0318 3.23932 13.9852 3.1173 13.9119 3.0114C13.8386 2.9055 13.7408 2.81887 13.6268 2.75887C13.5129 2.69886 13.3861 2.66725 13.2573 2.66673H8.33332Z" fill="url(#paint0_linear_143_230)"/>
<defs>
<linearGradient id="paint0_linear_143_230" x1="0.295166" y1="0" x2="29.8541" y2="19.7414" gradientUnits="userSpaceOnUse">
<stop stop-color="#00F4E6"/>
<stop offset="1" stop-color="#2C9AFF"/>
</linearGradient>
</defs>
</svg>
