<svg width="32" height="32" viewBox="0 0 32 32" fill="none" xmlns="http://www.w3.org/2000/svg">
<path d="M27.7079 11.0318C28.7706 8.25981 29.2719 5.77047 29.3066 5.59181C29.4026 5.10381 29.2199 4.60381 28.8319 4.29314C28.6813 4.17181 25.0292 1.33447 15.9986 1.33447C6.96792 1.33447 3.31859 4.17047 3.16659 4.29181C2.78525 4.59581 2.60259 5.08381 2.68659 5.56381C2.71725 5.74114 3.16792 8.24247 4.24925 11.0545C2.43992 12.0131 1.33325 13.8305 1.33325 15.9998C1.33325 19.3638 3.92525 21.9998 7.23325 21.9998H11.5306C11.2079 23.6265 10.8306 25.8785 10.7079 27.9998H9.99992C9.26392 27.9998 8.66658 28.5971 8.66658 29.3331C8.66658 30.0691 9.26392 30.6665 9.99992 30.6665H21.9999C22.7359 30.6665 23.3333 30.0691 23.3333 29.3331C23.3333 28.5971 22.7359 27.9998 21.9999 27.9998H21.2919C21.1693 25.8785 20.7919 23.6265 20.4693 21.9998H24.7652C28.0732 21.9998 30.6653 19.3638 30.6653 15.9998C30.6653 13.8131 29.5426 11.9838 27.7079 11.0318ZM3.99992 15.9998C3.99992 14.9011 4.48525 14.0185 5.33859 13.4998C5.98659 14.7531 6.76925 15.9531 7.70659 16.9265C8.63992 17.8945 9.47858 18.6598 10.2906 19.3345H7.23192C5.41858 19.3345 3.99859 17.8705 3.99859 16.0011L3.99992 15.9998ZM13.3786 27.9998C13.6066 24.4398 14.6146 20.3691 14.6266 20.3225C14.7573 19.7985 14.5586 19.2465 14.1239 18.9265C12.5919 17.7971 11.2879 16.7971 9.62525 15.0745C7.20658 12.5665 5.93859 7.91581 5.49592 5.98114C6.80125 5.30247 10.0773 3.99981 15.9986 3.99981C21.9199 3.99981 25.1799 5.29581 26.4866 5.97181C26.0039 7.95181 24.6572 12.7025 22.3719 15.0731C20.7346 16.7705 19.3653 17.8225 17.8719 18.9265C17.4386 19.2478 17.2399 19.7985 17.3719 20.3211C17.3839 20.3678 18.3906 24.4371 18.6199 27.9985L13.3786 27.9998ZM24.7666 19.3331H21.7013C22.5212 18.6518 23.3719 17.8785 24.2919 16.9251C25.2052 15.9785 25.9813 14.7638 26.6306 13.4825C27.5026 13.9998 27.9999 14.8891 27.9999 16.0011C27.9999 17.8705 26.5799 19.3345 24.7666 19.3345V19.3331Z" fill="url(#paint0_linear_143_235)"/>
<path d="M17.9654 14.0599C18.204 14.0599 18.4387 13.9439 18.5974 13.7479C18.752 13.5573 18.8134 13.3133 18.772 13.0599L18.644 12.2733C18.536 11.6173 18.7454 10.9466 19.204 10.4799L19.7547 9.92259C19.98 9.69193 20.0574 9.36526 19.96 9.05059C19.8614 8.73593 19.6147 8.51993 19.2974 8.47193L18.5414 8.35593C17.908 8.26126 17.3614 7.84793 17.0747 7.24926L16.7347 6.53326C16.5947 6.23593 16.32 6.05859 16.0027 6.05859C15.6854 6.05859 15.4094 6.23593 15.268 6.53326L14.928 7.25059C14.644 7.84793 14.096 8.26126 13.4627 8.35726L12.7027 8.47326C12.3894 8.52126 12.1427 8.73726 12.044 9.05193C11.9454 9.36659 12.0214 9.69326 12.2494 9.92393L12.8014 10.4826C13.2587 10.9479 13.468 11.6186 13.36 12.2746L13.2294 13.0613C13.1867 13.3146 13.2494 13.5573 13.4054 13.7493C13.5627 13.9439 13.7987 14.0613 14.0374 14.0613C14.168 14.0613 14.2947 14.0266 14.4174 13.9599L15.096 13.5893C15.3734 13.4359 15.6867 13.3559 16.0014 13.3559C16.316 13.3559 16.6294 13.4373 16.9067 13.5893L17.5854 13.9613C17.7067 14.0279 17.8347 14.0626 17.9654 14.0626V14.0599Z" fill="url(#paint1_linear_143_235)"/>
<defs>
<linearGradient id="paint0_linear_143_235" x1="1.33325" y1="1.33447" x2="30.6653" y2="30.6665" gradientUnits="userSpaceOnUse">
<stop stop-color="#00F4E6"/>
<stop offset="1" stop-color="#2C9AFF"/>
</linearGradient>
<linearGradient id="paint1_linear_143_235" x1="12.0017" y1="6.05859" x2="20.0057" y2="14.0582" gradientUnits="userSpaceOnUse">
<stop stop-color="#00F4E6"/>
<stop offset="1" stop-color="#2C9AFF"/>
</linearGradient>
</defs>
</svg>
