<svg width="26" height="16" viewBox="0 0 26 16" fill="none" xmlns="http://www.w3.org/2000/svg">
<g clip-path="url(#clip0_207_97)">
<path d="M26 0H0V16H26V0Z" fill="#FF0000"/>
<path d="M19.5 0H6.5V16H19.5V0Z" fill="white"/>
<path d="M13.0005 2.86816L12.1131 4.47574C12.0125 4.65006 11.8323 4.63406 11.652 4.53637L11.0072 4.21048L11.4856 6.67953C11.5861 7.1309 11.2637 7.1309 11.1043 6.93216L9.98627 5.71953L9.80428 6.33848C9.78871 6.38894 9.75431 6.43194 9.70782 6.45905C9.66133 6.48615 9.60609 6.49541 9.55294 6.48501L8.13594 6.19532L8.50774 7.50985C8.58748 7.80206 8.64988 7.92332 8.42714 8.0008L7.92188 8.23153L10.3615 10.1566C10.4103 10.1941 10.4467 10.2445 10.4664 10.3018C10.4861 10.3591 10.4882 10.4207 10.4725 10.4791L10.2593 11.1595C11.0991 11.0652 11.8513 10.9237 12.692 10.837C12.7665 10.8294 12.8905 10.9482 12.8896 11.0315L12.7787 13.5258H13.1869L13.1227 11.0374C13.1227 10.9532 13.2345 10.8294 13.3091 10.837C14.1497 10.9212 14.902 11.0661 15.7418 11.1595L15.5286 10.4791C15.5128 10.4207 15.5149 10.3591 15.5346 10.3018C15.5543 10.2445 15.5908 10.1941 15.6395 10.1566L18.0792 8.23153L17.5739 7.99995C17.3521 7.92248 17.4136 7.80206 17.4933 7.50901L17.8651 6.19448L16.4481 6.48416C16.395 6.49457 16.3398 6.48531 16.2933 6.4582C16.2468 6.4311 16.2124 6.3881 16.1968 6.33764L16.0148 5.71869L14.8942 6.9389C14.7347 7.13427 14.4123 7.13427 14.5129 6.68627L14.9939 4.21048L14.3517 4.53385C14.1714 4.63153 13.9911 4.64753 13.8906 4.47322" fill="#FF0000"/>
</g>
<defs>
<clipPath id="clip0_207_97">
<rect width="26" height="16" rx="2" fill="white"/>
</clipPath>
</defs>
</svg>
